<svg width="25" height="24" viewBox="0 0 25 24" fill="none" xmlns="http://www.w3.org/2000/svg">
<g clip-path="url(#clip0_3010_254162)">
<path fill-rule="evenodd" clip-rule="evenodd" d="M21.0785 18.255V5.25H4.0835V18.255H21.0785ZM4.0835 3.75H21.0785C21.4763 3.75 21.8579 3.90806 22.1392 4.18936C22.4205 4.47067 22.5785 4.85218 22.5785 5.25V18.255C22.5785 18.6528 22.4205 19.0344 22.1392 19.3157C21.8579 19.597 21.4763 19.755 21.0785 19.755H4.0835C3.68567 19.755 3.30416 19.597 3.02286 19.3157C2.74155 19.0344 2.5835 18.6528 2.5835 18.255V5.25C2.5835 4.85218 2.74155 4.47067 3.02286 4.18936C3.30416 3.90806 3.68567 3.75 4.0835 3.75ZM5.17103 6.18751H9.30353V17.2875H5.17103V6.18751ZM14.6435 6.18751H10.511V17.2875H14.6435V6.18751ZM15.881 6.18751H20.0135V17.2875H15.881V6.18751Z" fill="#FF4D4F"/>
</g>
<defs>
<clipPath id="clip0_3010_254162">
<rect width="24" height="24" fill="white" transform="translate(0.333496)"/>
</clipPath>
</defs>
</svg>
