<svg width="17" height="13" viewBox="0 0 17 13" fill="none" xmlns="http://www.w3.org/2000/svg">
<path fill-rule="evenodd" clip-rule="evenodd" d="M13.7295 1.9375V3.175L12.6045 2.33125V1.9375H1.35449V11.6687H12.6045V11.275L13.7295 10.4313V11.6687C13.7295 12.2875 13.2232 12.7937 12.6045 12.7937H1.35449C0.735742 12.7937 0.229492 12.2875 0.229492 11.6687V1.9375C0.229492 1.31875 0.735742 0.8125 1.35449 0.8125H12.6045C13.2232 0.8125 13.7295 1.31875 13.7295 1.9375ZM14.1232 8.74375L16.7107 6.83125L14.1232 4.8625L13.7295 4.58125L12.6045 3.7375L11.592 2.95V10.7125L12.6045 9.925L13.7295 9.08125L14.1232 8.74375Z" fill="#D48806"/>
</svg>
