<svg width="24" height="24" viewBox="0 0 24 24" fill="none" xmlns="http://www.w3.org/2000/svg">
<g clip-path="url(#clip0_1105_239576)">
<path fill-rule="evenodd" clip-rule="evenodd" d="M14.0027 2.19773L8.8053 11.2577L5.0553 4.77771C6.91371 2.99083 9.39217 1.99353 11.9703 1.99522C12.653 1.99214 13.3341 2.06002 14.0027 2.19773ZM9.87009 14.6555H2.37009C2.13397 13.798 2.01541 12.9124 2.01761 12.023C2.01538 9.56324 2.92069 7.18918 4.56012 5.35547L9.87009 14.6555ZM9.24026 21.6443L12.8178 15.4043H2.57275C3.10972 16.8986 3.9944 18.2437 5.15372 19.3287C6.31303 20.4137 7.71373 21.2074 9.24026 21.6443ZM15.2252 12.7119L18.9752 19.1919C17.1158 20.9997 14.6234 22.009 12.0302 22.0044C11.3629 22.0045 10.6973 21.9392 10.0427 21.8094L15.2252 12.7119ZM11.0553 8.84225H21.4878C20.9738 7.3 20.0919 5.90611 18.9185 4.78102C17.7451 3.65593 16.3153 2.8335 14.7527 2.38477L11.0553 8.84225ZM21.9975 11.9993C22.0044 14.4432 21.1098 16.8038 19.485 18.6293L14.3175 9.5918H21.72C21.9117 10.3797 22.0049 11.1884 21.9975 11.9993ZM8.4378 11.9927L8.4303 12.0002H8.4378V11.9927Z" fill="white"/>
</g>
<defs>
<clipPath id="clip0_1105_239576">
<rect width="24" height="24" fill="white"/>
</clipPath>
</defs>
</svg>
