<svg width="24" height="24" viewBox="0 0 24 24" fill="none" xmlns="http://www.w3.org/2000/svg">
<g clip-path="url(#clip0_1105_239588)">
<path fill-rule="evenodd" clip-rule="evenodd" d="M5.25 2.25C5.05113 2.25 4.86037 2.32901 4.71969 2.46969C4.57901 2.61037 4.5 2.80113 4.5 3V20.0025C4.5 20.2014 4.57903 20.3922 4.71969 20.5328C4.86033 20.6735 5.05107 20.7525 5.25 20.7525H13.275V22.2525H5.25C4.65328 22.2525 4.081 22.0155 3.65903 21.5935C3.23709 21.1716 3 20.5992 3 20.0025V3C3 2.40322 3.2371 1.83096 3.65903 1.40903C4.08096 0.987102 4.65322 0.75 5.25 0.75H15.9632L20.505 5.29186V14.7225H19.005V6.1051H16.7476C16.3497 6.1051 15.9682 5.94704 15.6869 5.66574C15.4056 5.38444 15.2476 5.00293 15.2476 4.6051V2.25H5.25ZM15.6676 12.9525L21.6676 18.9525L21.6901 18.9375C21.7501 19.0003 21.7849 19.0831 21.7876 19.17C21.7876 19.2595 21.752 19.3454 21.6888 19.4087C21.6255 19.472 21.5396 19.5075 21.4501 19.5075H19.2001L20.5126 22.5675C20.5236 22.5941 20.5292 22.6226 20.5291 22.6513C20.529 22.6801 20.5232 22.7086 20.5121 22.7351C20.5009 22.7616 20.4846 22.7856 20.4641 22.8057C20.4436 22.8259 20.4193 22.8418 20.3926 22.8525L18.9751 23.4675H18.8851H18.8026C18.7753 23.457 18.7506 23.4408 18.7299 23.4201C18.7093 23.3995 18.6932 23.3748 18.6826 23.3475L17.3251 20.19L15.6676 21.6375C15.6072 21.6891 15.5295 21.7158 15.4501 21.7125C15.3626 21.7125 15.2786 21.6778 15.2168 21.6159C15.1549 21.554 15.1201 21.47 15.1201 21.3825V13.2C15.1231 13.138 15.1432 13.0779 15.1782 13.0265C15.2131 12.9752 15.2616 12.9344 15.3182 12.9088C15.3748 12.8832 15.4374 12.8738 15.4991 12.8815C15.5607 12.8892 15.619 12.9138 15.6676 12.9525Z" fill="#D2D6EF"/>
</g>
<defs>
<clipPath id="clip0_1105_239588">
<rect width="24" height="24" fill="white"/>
</clipPath>
</defs>
</svg>
