<svg width="24" height="24" viewBox="0 0 24 24" fill="none" xmlns="http://www.w3.org/2000/svg">
<g clip-path="url(#clip0_1105_239532)">
<path fill-rule="evenodd" clip-rule="evenodd" d="M18.5167 6.43267L20.1315 4.81787L21.1922 5.87853L17.8097 9.26103L17.8081 9.25941L17.8064 9.26103L14.424 5.87853L15.4846 4.81787L17.0167 6.34999V0.75H18.5167V6.43267ZM21.2842 8.84969L19.8592 9.35968C20.3463 10.4186 20.602 11.5692 20.6092 12.7347C20.6123 14.4706 20.079 16.1651 19.0822 17.5863C18.0853 19.0075 16.6737 20.086 15.0404 20.6742C13.4072 21.2624 11.6321 21.3316 9.95803 20.8722C8.28396 20.4129 6.79269 19.4475 5.68833 18.1081C4.58396 16.7687 3.92043 15.1209 3.78852 13.3899C3.65661 11.659 4.06277 9.92959 4.95142 8.43834C5.84007 6.9471 7.16779 5.7669 8.75292 5.05918C10.338 4.35145 12.1031 4.15079 13.8067 4.48468L14.1667 3.02968C13.5104 2.89379 12.8419 2.82592 12.1717 2.82717C10.0381 2.82896 7.96183 3.5179 6.25041 4.79193C4.539 6.06597 3.28343 7.85737 2.6697 9.90076C2.05596 11.9441 2.11672 14.1309 2.84291 16.1371C3.56911 18.1432 4.92215 19.8622 6.70163 21.0392C8.48112 22.2163 10.5924 22.7889 12.7228 22.6723C14.8532 22.5557 16.8893 21.756 18.5297 20.3917C20.1701 19.0274 21.3274 17.1711 21.8303 15.0976C22.3331 13.0242 22.1548 10.8439 21.3216 8.87967L21.2842 8.84969ZM9.99685 13.957C10.1432 13.9565 10.2865 13.9988 10.4092 14.0787C10.5318 14.1587 10.6283 14.2728 10.6868 14.407C10.7781 14.597 10.9085 14.7657 11.0693 14.902C11.363 15.1336 11.7308 15.2509 12.1043 15.232C12.4778 15.26 12.8492 15.1565 13.1544 14.9395C13.2616 14.8587 13.349 14.7547 13.4101 14.6351C13.4712 14.5156 13.5043 14.3837 13.5068 14.2495C13.5102 14.0935 13.4569 13.9417 13.3568 13.822C13.216 13.6738 13.0369 13.5673 12.8393 13.5145C12.6743 13.4545 12.2919 13.3495 11.6919 13.1995C11.1026 13.0921 10.5458 12.8509 10.0644 12.4945C9.85709 12.3183 9.69114 12.0986 9.57836 11.851C9.46559 11.6034 9.40878 11.334 9.41187 11.062C9.41402 10.6995 9.52078 10.3453 9.71935 10.042C9.93342 9.70684 10.2448 9.44514 10.6119 9.292C10.8636 9.1925 11.1253 9.12234 11.3917 9.08242V8.42285C11.3917 8.00864 11.7275 7.67285 12.1417 7.67285C12.5559 7.67285 12.8917 8.00864 12.8917 8.42285V9.1102C13.3015 9.20267 13.6906 9.38091 14.0319 9.63697C14.2305 9.80865 14.3936 10.0176 14.5119 10.252C14.5604 10.3569 14.582 10.4722 14.5749 10.5875C14.5679 10.7029 14.5322 10.8146 14.4713 10.9128C14.4103 11.0109 14.3258 11.0924 14.2256 11.1499C14.1253 11.2073 14.0124 11.239 13.8969 11.242H13.8444C13.7001 11.2417 13.559 11.1998 13.4379 11.1213C13.3169 11.0428 13.221 10.931 13.1619 10.7995C13.1022 10.6741 13.015 10.5639 12.9069 10.477C12.6392 10.2989 12.32 10.2145 11.9993 10.237C11.653 10.215 11.3088 10.3044 11.0168 10.492C10.9439 10.5401 10.8843 10.6059 10.8436 10.6833C10.803 10.7607 10.7826 10.8471 10.7843 10.9345C10.7846 11.0188 10.8044 11.102 10.8422 11.1774C10.8799 11.2529 10.9346 11.3186 11.0019 11.3695C11.4091 11.6066 11.8566 11.7668 12.3218 11.842C12.8582 11.9517 13.3794 12.1254 13.8743 12.3595C14.2034 12.5287 14.4768 12.7891 14.6619 13.1095C14.8605 13.4531 14.9592 13.8453 14.9468 14.242C14.9493 14.6504 14.8291 15.0501 14.6019 15.3895C14.3742 15.7495 14.038 16.0279 13.6418 16.1845C13.3984 16.2772 13.1472 16.3459 12.8917 16.39V17.0621C12.8917 17.4763 12.5559 17.8121 12.1417 17.8121C11.7275 17.8121 11.3917 17.4763 11.3917 17.0621V16.4133C10.8966 16.3325 10.4248 16.1319 10.0194 15.8245C9.72292 15.5644 9.49607 15.2344 9.35937 14.8645C9.32535 14.7622 9.31575 14.6533 9.3314 14.5466C9.34705 14.4399 9.38752 14.3384 9.4495 14.2501C9.51149 14.1619 9.59326 14.0894 9.68832 14.0385C9.78337 13.9876 9.88905 13.9597 9.99685 13.957Z" fill="#D2D6EF"/>
</g>
<defs>
<clipPath id="clip0_1105_239532">
<rect width="24" height="24" fill="white"/>
</clipPath>
</defs>
</svg>
