<svg width="24" height="24" viewBox="0 0 24 24" fill="none" xmlns="http://www.w3.org/2000/svg">
<g clip-path="url(#clip0_1105_239678)">
<path d="M22.17 5.11501C19.47 5.11501 14.13 5.00999 13.485 5.00999L10.8225 3H5.04749C4.64966 3 4.26815 3.15806 3.98685 3.43936C3.70554 3.72067 3.54749 4.10218 3.54749 4.5V5.49751H3C2.60218 5.49751 2.22062 5.65552 1.93932 5.93683C1.65801 6.21813 1.5 6.59969 1.5 6.99751V19.5C1.5 19.8978 1.65801 20.2794 1.93932 20.5607C2.22062 20.842 2.60218 21 3 21H19.5525C19.9503 21 20.3318 20.842 20.6131 20.5607C20.8944 20.2794 21.0525 19.8978 21.0525 19.5V18.9975H22.0725C22.4703 18.9975 22.8518 18.8395 23.1331 18.5582C23.4144 18.2768 23.5725 17.8953 23.5725 17.4975L23.6775 6.63002C23.6795 6.43115 23.6419 6.23384 23.567 6.04962C23.492 5.8654 23.3811 5.69796 23.2408 5.55698C23.1006 5.416 22.9336 5.30431 22.7498 5.22844C22.566 5.15257 22.3689 5.114 22.17 5.11501ZM19.5525 19.5H3V6.99751H8.25L10.5 8.70749C10.7587 8.9049 11.0746 9.01285 11.4 9.01501L15.5775 9.06001L19.6275 9.11252L19.545 17.4975V18.9975L19.5525 19.5ZM22.05 17.4975H21.075L21.15 9.12749C21.15 8.72966 20.992 8.34815 20.7106 8.06685C20.4293 7.78554 20.0478 7.62749 19.65 7.62749C16.95 7.62749 12.0525 7.53003 11.4 7.53003L8.74498 5.51253H4.99498V4.51501H10.245L12.495 6.22499C12.7567 6.42127 13.0754 6.52664 13.4025 6.52501L18.6075 6.58502L22.0725 6.63002L22.05 17.4975Z" fill="#D2D6EF"/>
</g>
<defs>
<clipPath id="clip0_1105_239678">
<rect width="24" height="24" fill="white"/>
</clipPath>
</defs>
</svg>
