<svg width="24" height="24" viewBox="0 0 24 24" fill="none" xmlns="http://www.w3.org/2000/svg">
<g clip-path="url(#clip0_1105_239655)">
<path fill-rule="evenodd" clip-rule="evenodd" d="M22.028 18.4654V5.52044C22.032 5.31904 21.9955 5.11886 21.9205 4.93189C21.8455 4.74492 21.7336 4.57499 21.5915 4.4322C21.4494 4.28941 21.2801 4.17668 21.0935 4.10077C20.9069 4.02487 20.7069 3.98735 20.5054 3.99041H3.5105C3.11267 3.99041 2.73107 4.14846 2.44977 4.42977C2.16846 4.71107 2.0105 5.09258 2.0105 5.49041V11.7904C2.3455 11.7388 2.68403 11.7137 3.02298 11.7154H3.52542C5.29676 11.8347 6.96841 12.5786 8.24286 13.8146C9.5173 15.0506 10.3119 16.6985 10.4854 18.4654V19.2154V19.9654H20.528C20.9258 19.9654 21.3073 19.8074 21.5886 19.5261C21.8699 19.2448 22.028 18.8632 22.028 18.4654ZM1.98047 12.9532C2.31527 12.899 2.6538 12.8714 2.99295 12.8707L3.48798 12.8481V12.8994C4.95516 13.0131 6.33785 13.631 7.4014 14.648C8.46495 15.6651 9.14388 17.0188 9.323 18.4794C9.32316 18.4811 9.32333 18.4828 9.32349 18.4845C9.35496 18.732 9.37229 18.9812 9.37546 19.2307C9.37595 19.4813 9.36097 19.7318 9.33051 19.9807H7.83051C7.83177 19.9728 7.83301 19.9648 7.83423 19.9569H7.80798C7.84719 19.7088 7.86721 19.4581 7.86795 19.2069C7.86717 18.9555 7.84461 18.7045 7.80048 18.4569C7.62992 17.3975 7.11506 16.4237 6.33554 15.6862C5.55602 14.9487 4.55526 14.4886 3.48798 14.3769H2.99295C2.65277 14.3777 2.31356 14.4128 1.98047 14.4819V14.4532V12.9819V12.9532ZM5.108 19.9807C5.19537 19.7527 5.24103 19.511 5.24298 19.267L5.24295 19.2601C5.23852 19.0039 5.19037 18.7502 5.10049 18.5101C4.97043 18.1573 4.75398 17.8427 4.47098 17.5951C4.18798 17.3475 3.84744 17.1748 3.48047 17.0927C3.32056 17.0563 3.15694 17.0387 2.99295 17.0402C2.64159 17.0421 2.29532 17.1242 1.98047 17.2802V17.2207V15.6827V15.6232C2.30911 15.5261 2.65028 15.478 2.99295 15.4807V15.5332C3.15512 15.5185 3.3183 15.5185 3.48047 15.5332V15.5395L3.48798 15.5402C4.25564 15.6426 4.97272 15.9803 5.54077 16.5067C6.10883 17.0331 6.49998 17.7225 6.66046 18.4802C6.68331 18.5873 6.70143 18.6953 6.71481 18.8038C6.73229 18.9453 6.7417 19.0879 6.74295 19.2307C6.74311 19.2482 6.74314 19.2657 6.74304 19.2832C6.74321 19.5274 6.71807 19.7711 6.66797 20.0101H5.108C5.11172 20.0003 5.11537 19.9905 5.11893 19.9807H5.108Z" fill="white"/>
</g>
<defs>
<clipPath id="clip0_1105_239655">
<rect width="24" height="24" fill="white"/>
</clipPath>
</defs>
</svg>
