<svg width="24" height="24" viewBox="0 0 24 24" fill="none" xmlns="http://www.w3.org/2000/svg">
<path d="M23.9999 11.9999C24.0009 12.622 23.9539 13.2432 23.8593 13.8581C23.5746 15.6875 22.8685 17.4258 21.7968 18.9356C21.7176 19.0467 21.6374 19.1563 21.5549 19.2637C21.3205 19.5712 21.0721 19.8668 20.8096 20.1506C19.1191 21.9769 16.9031 23.2332 14.4679 23.7459C14.1491 23.8124 13.8258 23.8662 13.498 23.9071C12.5049 24.0303 11.5005 24.0303 10.5074 23.9071C10.1799 23.8665 9.85661 23.8127 9.53755 23.7459C7.6234 23.3458 5.83674 22.4819 4.33442 21.2301C4.1838 21.1051 4.03677 20.9768 3.89333 20.8453C3.60958 20.5853 3.3388 20.312 3.08099 20.0254C1.15655 17.8892 0.0637605 15.1327 0.00180943 12.2581C-0.0601416 9.3836 0.912866 6.58252 2.74349 4.36541C2.84521 4.24166 2.95021 4.12025 3.05661 4.00072C3.31349 3.71384 3.58349 3.43978 3.86661 3.17853C5.45787 1.70837 7.41808 0.697319 9.53849 0.253062C9.85474 0.186812 10.1768 0.133687 10.5046 0.0936871C11.4977 -0.0294387 12.5021 -0.0294387 13.4952 0.0936871C13.823 0.134312 14.1463 0.188062 14.465 0.254937C16.0589 0.587854 17.5677 1.24367 18.8985 2.18197C19.0513 2.28884 19.2015 2.39978 19.349 2.51478C19.6546 2.75103 19.9479 3.00181 20.2288 3.26712C20.5839 3.60207 20.9184 3.95819 21.2305 4.33353C22.6156 5.99656 23.5229 8.00463 23.8555 10.1432C23.9513 10.7575 23.9996 11.3782 23.9999 11.9999Z" fill="#3E436D"/>
<path d="M21.2306 4.33208L16.7184 8.84427L15.4219 10.1418L14.4661 11.0975L14.2115 11.3521L13.4953 12.0674L11.7047 13.858L10.5047 15.058L10.4062 15.1555L9.53389 16.0279L4.33076 21.231C4.18014 21.106 4.03311 20.9777 3.88967 20.8461C3.60592 20.5861 3.33514 20.3129 3.07732 20.0263C2.75558 19.6689 2.45566 19.2924 2.1792 18.899L5.92217 15.156L9.53154 11.5466L9.7242 11.3544L10.5014 10.5768L10.934 10.1441L11.9653 9.11286L12.2311 8.84661L13.4915 7.58614L14.4614 6.6163L18.8948 2.18286C19.0476 2.28974 19.1978 2.40067 19.3453 2.51567C19.6509 2.75192 19.9442 3.00271 20.2251 3.26802C20.5815 3.60209 20.9172 3.95743 21.2306 4.33208Z" fill="white"/>
<path d="M21.794 18.9374C21.7148 19.0485 21.6346 19.1582 21.5521 19.2656C21.3178 19.5731 21.0693 19.8687 20.8068 20.1524C20.4413 20.5474 20.0498 20.9174 19.635 21.2601L14.4651 16.0898L13.5309 15.1556L13.4953 15.1199L12.2343 13.8581L11.969 13.5937L10.5046 12.1293L9.72746 11.3521L9.53481 11.1595L8.51715 10.1418L7.21871 8.84431L2.74121 4.36587C2.84293 4.24212 2.94793 4.12072 3.05434 4.00118C3.31121 3.71431 3.58121 3.44025 3.86434 3.179C4.24247 2.82932 4.64267 2.50427 5.06246 2.20587L21.794 18.9374Z" fill="white"/>
<path d="M9.29562 15.4409L3.89047 20.8456C3.60672 20.5856 3.33594 20.3123 3.07812 20.0258L7.66297 15.4409H9.29562Z" fill="#DB1B1B"/>
<path d="M20.2287 3.26565L14.6505 8.84377L14.463 9.02893L14.3627 9.12924H12.7324L13.0179 8.84377L13.4951 8.36706L19.3488 2.51331C19.6545 2.74956 19.9477 3.00034 20.2287 3.26565Z" fill="#DB1B1B"/>
<path d="M21.552 19.2654C21.3176 19.5729 21.0692 19.8686 20.8067 20.1523L16.0967 15.4409H17.7289L21.552 19.2654Z" fill="#DB1B1B"/>
<path d="M9.81498 9.12973H8.18279L7.89732 8.84426L3.0542 4.00114C3.31107 3.71427 3.58107 3.4402 3.8642 3.17896L9.52951 8.84426L9.53467 8.84942L9.81498 9.12973Z" fill="#DB1B1B"/>
<path d="M23.8592 10.1418C23.7913 9.7045 23.6989 9.27133 23.5827 8.84431H14.465V0.253531C14.1463 0.186968 13.823 0.133687 13.4952 0.0936871C12.5021 -0.0294387 11.4976 -0.0294387 10.5045 0.0936871C10.177 0.134312 9.85376 0.188062 9.5347 0.254937V8.84431H0.421729C0.305473 9.27133 0.213142 9.7045 0.145166 10.1418C-0.045459 11.3732 -0.045459 12.6266 0.145166 13.8581C0.213142 14.2954 0.305473 14.7285 0.421729 15.1556H9.5347V23.7463C9.85345 23.8129 10.1767 23.8667 10.5045 23.9076C11.4976 24.0307 12.5021 24.0307 13.4952 23.9076C13.823 23.867 14.1463 23.8132 14.465 23.7463V15.1556H23.5803C23.6966 14.7285 23.7889 14.2954 23.8569 13.8581C24.0475 12.6266 24.0475 11.3732 23.8569 10.1418H23.8592Z" fill="white"/>
<path d="M24 11.9999C24.001 11.3779 23.954 10.7566 23.8594 10.1418H13.5V0.0936871C12.5069 -0.0294387 11.5024 -0.0294387 10.5094 0.0936871V10.1418H0.142969C-0.0476563 11.3732 -0.0476563 12.6266 0.142969 13.8581H10.5047V23.9062C11.4978 24.0293 12.5022 24.0293 13.4953 23.9062V13.8581H23.8594C23.954 13.2432 24.001 12.622 24 11.9999Z" fill="#DB1B1B"/>
</svg>
