<svg width="24" height="24" viewBox="0 0 24 24" fill="none" xmlns="http://www.w3.org/2000/svg">
<g clip-path="url(#clip0_1105_239633)">
<path fill-rule="evenodd" clip-rule="evenodd" d="M18.9444 7.01253L12.5244 3.91502L12.4869 3.92999L6.06686 7.0275L6.52435 12.5775C6.62094 14.2819 7.19752 15.9242 8.1875 17.315C9.17748 18.7058 10.5405 19.7882 12.1194 20.4375L12.5168 20.595L12.9594 20.415C14.5209 19.7563 15.8661 18.6725 16.8419 17.2869C17.8178 15.9013 18.3851 14.2696 18.4794 12.5775V12.5625L18.9444 7.01253ZM4.48438 6.12003L12.4869 2.26501L12.5244 2.25L20.4893 6.12003L19.9344 12.705C19.8318 14.6803 19.1733 16.5865 18.0348 18.2039C16.8964 19.8214 15.3242 21.0844 13.4993 21.8475L12.4869 22.2675L11.5119 21.87C9.67278 21.1125 8.08665 19.8483 6.93813 18.2244C5.78961 16.6006 5.12593 14.6839 5.02435 12.6975L4.48438 6.12003ZM12.1891 16.1674L17.2911 9.89368L16.1274 8.94727L12.0194 13.9986L9.87548 12.0725L8.87305 13.1884L12.1891 16.1674Z" fill="#D2D6EF"/>
</g>
<defs>
<clipPath id="clip0_1105_239633">
<rect width="24" height="24" fill="white"/>
</clipPath>
</defs>
</svg>
