<svg width="24" height="24" viewBox="0 0 24 24" fill="none" xmlns="http://www.w3.org/2000/svg">
<g clip-path="url(#clip0_1105_239521)">
<path fill-rule="evenodd" clip-rule="evenodd" d="M11.2719 10.5298V4.40977C9.75977 4.70939 8.37046 5.45078 7.27974 6.54016C6.18902 7.62955 5.44592 9.01795 5.14445 10.5298H11.2719ZM6.21709 5.47485C7.95555 3.73639 10.3134 2.75977 12.7719 2.75977V12.0298H3.50195V12.0289C3.50217 9.57067 4.47882 7.21312 6.21709 5.47485ZM17.0383 16.3166C17.794 15.5622 18.2885 14.5858 18.4494 13.5303L21.4795 13.5003C21.3013 15.3567 20.4821 17.0931 19.1627 18.4112C17.8433 19.7292 16.1061 20.5466 14.2495 20.7228V17.7228C15.3053 17.5637 16.2825 17.0709 17.0383 16.3166ZM14.257 7.81526V4.81526V4.78528C16.1057 4.96943 17.8332 5.78932 19.1449 7.10509C20.4565 8.42086 21.2711 10.151 21.4494 12.0003H18.4494C18.2874 10.9471 17.7934 9.97322 17.0393 9.22046C16.2851 8.46769 15.3104 7.9754 14.257 7.81526ZM5.56445 13.5303H8.56445C8.71806 14.5944 9.21142 15.5803 9.97098 16.3412C10.7305 17.1022 11.7156 17.5973 12.7794 17.7528V20.7528C10.9255 20.5732 9.1918 19.7544 7.87543 18.4367C6.55906 17.119 5.74204 15.3844 5.56445 13.5303Z" fill="#D2D6EF"/>
</g>
<defs>
<clipPath id="clip0_1105_239521">
<rect width="24" height="24" fill="white"/>
</clipPath>
</defs>
</svg>
