<svg width="24" height="24" viewBox="0 0 24 24" fill="none" xmlns="http://www.w3.org/2000/svg">
<g clip-path="url(#clip0_1105_239498)">
<path fill-rule="evenodd" clip-rule="evenodd" d="M16 6.25439C16 6.90102 15.8466 7.51181 15.5741 8.05234L15.6601 7.91602C16.6413 8.53494 17.4499 9.39226 18.0103 10.4081C18.5707 11.4239 18.8648 12.565 18.865 13.7252L17.365 13.7255C17.3648 12.8187 17.135 11.9267 16.6969 11.1327C16.2589 10.3387 15.6269 9.66852 14.8599 9.18472L15.1659 8.69946C14.4344 9.64534 13.2883 10.2544 12 10.2544C10.6468 10.2544 9.45052 9.58243 8.72668 8.55397L9.14023 9.20962C8.37324 9.69341 7.74126 10.3636 7.30321 11.1576C6.86516 11.9516 6.63533 12.8436 6.63513 13.7504L6.21595 13.7504C8.32467 13.8625 10 15.6079 10 17.7446C10 18.2277 9.91438 18.6907 9.7575 19.1194L9.93297 18.6973C10.5881 18.9696 11.2906 19.1098 12.0001 19.1098C12.7096 19.1098 13.4121 18.9696 14.0672 18.6973L14.2412 19.1159C14.0852 18.6882 14 18.2264 14 17.7446C14 15.5355 15.7909 13.7446 18 13.7446C20.2091 13.7446 22 15.5355 22 17.7446C22 19.9538 20.2091 21.7446 18 21.7446C16.3966 21.7446 15.0135 20.8012 14.3756 19.4392L14.643 20.0823C13.8054 20.4306 12.9072 20.6098 12.0001 20.6098C11.093 20.6098 10.1948 20.4306 9.35718 20.0823L9.62593 19.4359C8.98872 20.7997 7.60471 21.7446 6 21.7446C3.79086 21.7446 2 19.9538 2 17.7446C2 15.6074 3.67624 13.8616 5.78579 13.7503L5.13513 13.7501C5.13538 12.59 5.42941 11.4488 5.98982 10.433C6.55023 9.41722 7.35873 8.55985 8.33999 7.94092L8.51072 8.21159C8.18549 7.63302 8 6.96537 8 6.25439C8 4.04526 9.79086 2.25439 12 2.25439C14.2091 2.25439 16 4.04526 16 6.25439Z" fill="white"/>
</g>
<defs>
<clipPath id="clip0_1105_239498">
<rect width="24" height="24" fill="white"/>
</clipPath>
</defs>
</svg>
