<svg width="24" height="24" viewBox="0 0 24 24" fill="none" xmlns="http://www.w3.org/2000/svg">
<g clip-path="url(#clip0_1105_239543)">
<path fill-rule="evenodd" clip-rule="evenodd" d="M15.6234 2.50477L15.5857 2.5425L15.586 2.54288L14.0867 4.04227H19.6809V4.04288H19.6811V5.54288H19.6661V14.8423C21.0437 15.1788 22.066 16.4212 22.066 17.9024C22.066 19.6421 20.6557 21.0524 18.916 21.0524C17.1763 21.0524 15.766 19.6421 15.766 17.9024C15.766 16.4211 16.7885 15.1787 18.1661 14.8422V5.54288H14.0115L15.6234 7.15477L15.6232 7.15497L15.6236 7.15535L14.5286 8.25787L13.5836 7.31287L12.1961 5.93285L11.1385 4.86786L11.1763 4.83014L11.1759 4.82977L14.5584 1.44727L15.6234 2.50477ZM3.49609 6.14268C3.49609 5.23141 4.23482 4.49268 5.14609 4.49268C6.05736 4.49268 6.79609 5.23141 6.79609 6.14268C6.79609 7.05395 6.05736 7.79268 5.14609 7.79268C4.23482 7.79268 3.49609 7.05395 3.49609 6.14268ZM5.14609 2.99268C3.4064 2.99268 1.99609 4.40298 1.99609 6.14268C1.99609 7.62384 3.01838 8.86624 4.39587 9.20279V18.5022H4.37354V20.0022H4.39587V20.003H5.89587V20.0022L9.96851 20.0022L8.43102 21.5397L8.43104 21.5397L9.496 22.5972L9.49604 22.5972L12.8785 19.2147L12.8785 19.2147L11.821 18.1497L10.4335 16.7697L9.60666 15.9428L9.48853 15.8247L8.43104 16.8897L8.43102 16.8897L10.0435 18.5022H5.89587V9.2029C7.27359 8.86651 8.29609 7.624 8.29609 6.14268C8.29609 4.40298 6.88579 2.99268 5.14609 2.99268ZM18.916 16.2524C18.0047 16.2524 17.266 16.9912 17.266 17.9024C17.266 18.8137 18.0047 19.5524 18.916 19.5524C19.8273 19.5524 20.566 18.8137 20.566 17.9024C20.566 16.9912 19.8273 16.2524 18.916 16.2524Z" fill="#D2D6EF"/>
</g>
<defs>
<clipPath id="clip0_1105_239543">
<rect width="24" height="24" fill="white"/>
</clipPath>
</defs>
</svg>
