<svg width="24" height="24" viewBox="0 0 24 24" fill="none" xmlns="http://www.w3.org/2000/svg">
<g clip-path="url(#clip0_1105_239565)">
<path fill-rule="evenodd" clip-rule="evenodd" d="M12.2703 3.75C13.9528 3.74852 15.5979 4.24605 16.9975 5.17969C18.3971 6.11333 19.4884 7.4411 20.1333 8.99506C20.7782 10.549 20.9476 12.2594 20.6203 13.9097C20.293 15.56 19.4835 17.0761 18.2944 18.2663C17.1053 19.4565 15.5898 20.2673 13.9398 20.596C12.2898 20.9248 10.5793 20.7568 9.02482 20.1133C7.4703 19.4698 6.14158 18.3797 5.20671 16.9809C4.27184 15.5821 3.77281 13.9374 3.77281 12.255C3.77479 10.0012 4.67046 7.84027 6.26341 6.24591C7.85636 4.65156 10.0166 3.75397 12.2703 3.75ZM12.2703 2.25C10.2912 2.24852 8.35612 2.83405 6.70982 3.93251C5.06352 5.03097 3.77998 6.59303 3.02157 8.42107C2.26317 10.2491 2.06394 12.261 2.44914 14.2023C2.83434 16.1435 3.78664 17.9269 5.18556 19.3269C6.58449 20.7269 8.36718 21.6805 10.3082 22.0672C12.2491 22.4538 14.2612 22.2562 16.0899 21.4991C17.9185 20.7421 19.4815 19.4597 20.5812 17.8142C21.6809 16.1688 22.2678 14.2341 22.2678 12.255C22.2688 10.9415 22.0109 9.64066 21.509 8.42684C21.007 7.21302 20.2707 6.10998 19.3423 5.18083C18.4138 4.25169 17.3114 3.51461 16.0979 3.01172C14.8845 2.50883 13.5838 2.25 12.2703 2.25ZM11.498 12.2324V5.87988H12.998V11.6223L16.5432 15.1675L15.4826 16.2282L11.5226 12.2682L11.5584 12.2324H11.498Z" fill="#D2D6EF"/>
</g>
<defs>
<clipPath id="clip0_1105_239565">
<rect width="24" height="24" fill="white"/>
</clipPath>
</defs>
</svg>
