<svg width="24" height="24" viewBox="0 0 24 24" fill="none" xmlns="http://www.w3.org/2000/svg">
<g clip-path="url(#clip0_1105_239510)">
<path fill-rule="evenodd" clip-rule="evenodd" d="M7.74756 3H16.7476V4.5H7.74756V3ZM3.75 8.36279H20.745C21.1428 8.36279 21.5243 8.52085 21.8056 8.80215C22.0869 9.08346 22.245 9.46497 22.245 9.86279V19.5003C22.245 19.8981 22.0869 20.2797 21.8056 20.561C21.5243 20.8423 21.1428 21.0003 20.745 21.0003H3.75C3.35218 21.0003 2.97062 20.8423 2.68932 20.561C2.40801 20.2797 2.25 19.8981 2.25 19.5003V9.86279C2.25 9.46497 2.40801 9.08346 2.68932 8.80215C2.97062 8.52085 3.35218 8.36279 3.75 8.36279ZM18.9976 5.67041H5.49756V7.17041H18.9976V5.67041Z" fill="white"/>
</g>
<defs>
<clipPath id="clip0_1105_239510">
<rect width="24" height="24" fill="white"/>
</clipPath>
</defs>
</svg>
