<svg width="24" height="24" viewBox="0 0 24 24" fill="none" xmlns="http://www.w3.org/2000/svg">
<g clip-path="url(#clip0_1105_239554)">
<path fill-rule="evenodd" clip-rule="evenodd" d="M12.2772 3.46143C13.9641 3.46143 15.6131 3.96174 17.0156 4.89908C18.4181 5.83643 19.5111 7.16868 20.1563 8.72731C20.8015 10.2859 20.97 12.0009 20.6403 13.6553C20.3107 15.3097 19.4977 16.8291 18.3044 18.0214C17.111 19.2137 15.5909 20.0253 13.9362 20.3535C12.2816 20.6817 10.5667 20.5117 9.00867 19.8652C7.45061 19.2186 6.1193 18.1244 5.18319 16.7211C4.24708 15.3178 3.74822 13.6683 3.7497 11.9814C3.75367 9.72169 4.65363 7.55579 6.2522 5.95862C7.85077 4.36146 10.0175 3.46341 12.2772 3.46143ZM12.2772 1.96143C10.2933 1.95995 8.35354 2.54698 6.70337 3.64824C5.05321 4.74951 3.76682 6.31551 3.00693 8.1481C2.24705 9.9807 2.04783 11.9975 2.4345 13.9433C2.82117 15.8892 3.77638 17.6766 5.1792 19.0795C6.58203 20.4823 8.36942 21.4374 10.3153 21.8241C12.2611 22.2108 14.2779 22.0116 16.1105 21.2517C17.9431 20.4918 19.5091 19.2054 20.6104 17.5552C21.7116 15.9051 22.2987 13.9653 22.2972 11.9814C22.2952 9.32456 21.2389 6.77708 19.3602 4.89839C17.4815 3.01971 14.9341 1.96342 12.2772 1.96143ZM12.3145 6.1831C12.9358 6.1831 13.4395 6.68678 13.4395 7.3081V13.8106C13.4395 14.4319 12.9358 14.9356 12.3145 14.9356C11.6931 14.9356 11.1895 14.4319 11.1895 13.8106V7.3081C11.1895 6.68678 11.6931 6.1831 12.3145 6.1831ZM13.4395 16.8964C13.4395 17.5177 12.9358 18.0214 12.3145 18.0214C11.6931 18.0214 11.1895 17.5177 11.1895 16.8964C11.1895 16.2751 11.6931 15.7714 12.3145 15.7714C12.9358 15.7714 13.4395 16.2751 13.4395 16.8964Z" fill="#D2D6EF"/>
</g>
<defs>
<clipPath id="clip0_1105_239554">
<rect width="24" height="24" fill="white"/>
</clipPath>
</defs>
</svg>
