<svg width="24" height="24" viewBox="0 0 24 24" fill="none" xmlns="http://www.w3.org/2000/svg">
<g clip-path="url(#clip0_1105_239667)">
<path fill-rule="evenodd" clip-rule="evenodd" d="M19.5 4.5V12.0145L16.0225 9.06696C15.8737 8.94078 15.6529 8.94987 15.5149 9.08786L10.1567 14.4461L8.20868 12.6895C8.13457 12.6227 8.03689 12.5882 7.93726 12.5936C7.83763 12.599 7.74425 12.6439 7.6778 12.7183L4.5 16.2781V4.5H19.5ZM15.801 9.86239L19.5 12.9977V19.6875H4.5V17.4044L7.98633 13.4989L9.91893 15.2415C10.0672 15.3752 10.2941 15.3693 10.4352 15.2282L15.801 9.86239ZM19.5 3H4.5C4.10218 3 3.72062 3.15806 3.43932 3.43936C3.15801 3.72067 3 4.10218 3 4.5V19.6875C3 20.0853 3.15801 20.4669 3.43932 20.7482C3.72062 21.0295 4.10218 21.1875 4.5 21.1875H19.5C19.8978 21.1875 20.2793 21.0295 20.5606 20.7482C20.8419 20.4669 21 20.0853 21 19.6875V4.5C21 4.10218 20.8419 3.72067 20.5606 3.43936C20.2793 3.15806 19.8978 3 19.5 3ZM6.96753 8.13721C6.96753 7.30878 7.6391 6.63721 8.46753 6.63721C9.29596 6.63721 9.96753 7.30878 9.96753 8.13721C9.96753 8.96563 9.29596 9.63721 8.46753 9.63721C7.6391 9.63721 6.96753 8.96563 6.96753 8.13721ZM8.46753 5.88721C7.22489 5.88721 6.21753 6.89457 6.21753 8.13721C6.21753 9.37985 7.22489 10.3872 8.46753 10.3872C9.71017 10.3872 10.7175 9.37985 10.7175 8.13721C10.7175 6.89457 9.71017 5.88721 8.46753 5.88721Z" fill="#D2D6EF"/>
</g>
<defs>
<clipPath id="clip0_1105_239667">
<rect width="24" height="24" fill="white"/>
</clipPath>
</defs>
</svg>
