<svg width="24" height="24" viewBox="0 0 24 24" fill="none" xmlns="http://www.w3.org/2000/svg">
<g clip-path="url(#clip0_1105_239599)">
<path fill-rule="evenodd" clip-rule="evenodd" d="M12.5773 1.58609C12.3453 1.45191 12.0593 1.45176 11.8271 1.58571C11.5949 1.71965 11.4519 1.96731 11.4519 2.23535V3.52873C9.0101 3.69867 6.69087 4.69896 4.88686 6.37537C2.89891 8.22272 1.68401 10.7541 1.48639 13.4607C1.46027 13.8184 1.69101 14.1445 2.03699 14.2389C2.38296 14.3333 2.74735 14.1695 2.9065 13.8482C3.6743 12.2977 4.86135 10.9935 6.33292 10.0835C7.80448 9.17362 9.50166 8.69446 11.2318 8.70037L11.2376 8.70034C11.319 8.7 11.4005 8.70089 11.4819 8.70301V10.2078C11.4819 10.4758 11.6249 10.7235 11.8571 10.8574C12.0893 10.9914 12.3753 10.9913 12.6073 10.8571L15.2923 9.30465L16.0441 8.8611L18.9397 7.2001L18.9426 7.19842L19.4946 6.88506C19.7286 6.75227 19.8735 6.50437 19.8744 6.23537C19.8753 5.96637 19.7321 5.71749 19.4991 5.58311L12.5773 1.58609ZM12.9519 3.5354L17.6172 6.22943L15.2937 7.56221L14.5386 8.00769L12.9819 8.90781V8.00281C12.9819 7.62028 12.694 7.29905 12.3138 7.25729C11.9552 7.21791 11.5947 7.19893 11.2341 7.20034C9.22454 7.19402 7.25333 7.75082 5.54404 8.80773C4.99854 9.14503 4.48668 9.52896 4.01355 9.95394C4.49571 9.03381 5.13368 8.19369 5.90795 7.47418C7.61826 5.88484 9.86682 5.00187 12.2016 5.00281C12.4005 5.00289 12.5914 4.92391 12.7321 4.78324C12.8728 4.64258 12.9519 4.45177 12.9519 4.25281V3.5354ZM22.9775 11.0044C23.0036 10.6467 22.7728 10.3206 22.4269 10.2262C22.0809 10.1319 21.7165 10.2956 21.5573 10.617C20.7895 12.1674 19.6025 13.4716 18.1309 14.3816C16.6593 15.2915 14.9622 15.7707 13.232 15.7648L13.2263 15.7648C13.1448 15.7651 13.0634 15.7642 12.982 15.7621V14.2798C12.982 14.0118 12.8389 13.7641 12.6068 13.6302C12.3746 13.4962 12.0886 13.4964 11.8566 13.6305L9.17154 15.183L8.41856 15.6272L5.52155 17.3041L4.96928 17.6175C4.7346 17.7507 4.58956 17.9997 4.58948 18.2695C4.5894 18.5394 4.73429 18.7885 4.96889 18.9218L8.42398 20.8855L11.8715 22.879C12.1035 23.0132 12.3896 23.0134 12.6217 22.8794C12.8539 22.7455 12.9969 22.4978 12.9969 22.2298V20.9374C15.4413 20.7707 17.764 19.7719 19.5711 18.0952C21.5625 16.2475 22.7796 13.7138 22.9775 11.0044ZM9.17242 19.5855L6.85234 18.2669L9.17269 16.9239L9.92523 16.4799L11.482 15.5798V16.4623C11.482 16.8448 11.7699 17.166 12.1501 17.2078C12.5086 17.2472 12.8691 17.2662 13.2298 17.2648C15.2393 17.2711 17.2105 16.7143 18.9198 15.6574C19.4653 15.32 19.9772 14.9361 20.4503 14.5111C19.9671 15.4333 19.3274 16.2751 18.5508 16.9957C16.8376 18.5853 14.5855 19.4667 12.2484 19.4623C12.0492 19.4619 11.8581 19.5408 11.7171 19.6814C11.5762 19.8221 11.4969 20.0131 11.4969 20.2123V20.9297L9.17242 19.5855Z" fill="#D2D6EF"/>
</g>
<defs>
<clipPath id="clip0_1105_239599">
<rect width="24" height="24" fill="white"/>
</clipPath>
</defs>
</svg>
