<svg width="24" height="24" viewBox="0 0 24 24" fill="none" xmlns="http://www.w3.org/2000/svg">
<g clip-path="url(#clip0_1105_239644)">
<path fill-rule="evenodd" clip-rule="evenodd" d="M11.0025 3.75C9.71434 3.75 8.67004 4.7943 8.67004 6.0825C8.67004 7.3707 9.71434 8.415 11.0025 8.415C12.2907 8.415 13.335 7.3707 13.335 6.0825C13.335 4.7943 12.2907 3.75 11.0025 3.75ZM7.17004 6.0825C7.17004 3.96587 8.88591 2.25 11.0025 2.25C13.1192 2.25 14.835 3.96587 14.835 6.0825C14.835 8.19913 13.1192 9.915 11.0025 9.915C8.88591 9.915 7.17004 8.19913 7.17004 6.0825ZM14.311 13.2386C13.155 12.7509 11.8964 12.5568 10.6472 12.6736C9.39805 12.7904 8.19718 13.2144 7.15162 13.9078C6.10607 14.6012 5.24832 15.5425 4.6548 16.6479C4.06129 17.7532 3.75046 18.9882 3.75 20.2428L2.25 20.2423C2.25055 18.7402 2.62268 17.2616 3.33327 15.9383C4.04385 14.6149 5.07078 13.4879 6.32256 12.6577C7.57434 11.8275 9.01207 11.3199 10.5076 11.1801C12.0031 11.0403 13.51 11.2727 14.894 11.8565L14.311 13.2386ZM20.0475 17.7151C20.0428 17.8556 20.0303 17.9959 20.01 18.1351L20.8125 18.7576C20.8993 18.8245 20.9591 18.9204 20.9811 19.0278C21.0032 19.1352 20.9859 19.2468 20.9325 19.3425L20.1825 20.61C20.1275 20.7043 20.0405 20.7758 19.9373 20.8116C19.8342 20.8473 19.7216 20.845 19.62 20.8051L18.6825 20.4076C18.4517 20.5854 18.1998 20.7341 17.9325 20.8501L17.805 21.8401C17.7921 21.9501 17.7391 22.0515 17.656 22.1248C17.573 22.1982 17.4658 22.2383 17.355 22.2376H15.8925C15.7818 22.2383 15.6745 22.1982 15.5915 22.1248C15.5085 22.0515 15.4554 21.9501 15.4425 21.8401L15.3225 20.8501C15.0544 20.7358 14.8022 20.5871 14.5725 20.4076L13.635 20.8051C13.5323 20.8455 13.4186 20.8481 13.3142 20.8123C13.2098 20.7766 13.1214 20.7049 13.065 20.61L12.315 19.3425C12.2616 19.2468 12.2444 19.1352 12.2664 19.0278C12.2884 18.9204 12.3483 18.8245 12.435 18.7576L13.2525 18.1351C13.2296 17.996 13.2146 17.8558 13.2075 17.7151C13.2151 17.5719 13.2301 17.4292 13.2525 17.2876L12.435 16.6725C12.3483 16.6056 12.2884 16.5097 12.2664 16.4023C12.2444 16.295 12.2616 16.1833 12.315 16.0876L13.065 14.8201C13.1191 14.7229 13.2073 14.6491 13.3126 14.6131C13.4179 14.5771 13.5327 14.5814 13.635 14.6251L14.5725 15.0225C14.8022 14.8431 15.0544 14.6943 15.3225 14.5801L15.4425 13.5826C15.4571 13.4739 15.5109 13.3743 15.5938 13.3025C15.6767 13.2307 15.7829 13.1916 15.8925 13.1926H17.355C17.4647 13.1916 17.5709 13.2307 17.6537 13.3025C17.7366 13.3743 17.7904 13.4739 17.805 13.5826L17.9325 14.5801C18.1998 14.6961 18.4517 14.8447 18.6825 15.0225L19.62 14.6251C19.7223 14.5814 19.8372 14.5771 19.9425 14.6131C20.0477 14.6491 20.1359 14.7229 20.19 14.8201L20.94 16.0876C20.9967 16.1825 21.0158 16.2951 20.9936 16.4033C20.9714 16.5116 20.9094 16.6076 20.82 16.6725L20.01 17.2876C20.0303 17.4293 20.0428 17.572 20.0475 17.7151ZM15.6533 19.2405C15.9506 19.4391 16.3 19.5451 16.6575 19.5451C17.1369 19.5451 17.5967 19.3546 17.9356 19.0157C18.2746 18.6767 18.465 18.217 18.465 17.7376C18.465 17.3801 18.359 17.0306 18.1604 16.7334C17.9618 16.4361 17.6795 16.2045 17.3492 16.0677C17.019 15.9309 16.6555 15.8951 16.3049 15.9648C15.9543 16.0345 15.6322 16.2067 15.3794 16.4595C15.1267 16.7122 14.9545 17.0343 14.8848 17.3849C14.815 17.7355 14.8508 18.099 14.9876 18.4293C15.1244 18.7595 15.3561 19.0419 15.6533 19.2405Z" fill="#D2D6EF"/>
</g>
<defs>
<clipPath id="clip0_1105_239644">
<rect width="24" height="24" fill="white"/>
</clipPath>
</defs>
</svg>
