<svg width="24" height="24" viewBox="0 0 24 24" fill="none" xmlns="http://www.w3.org/2000/svg">
<g clip-path="url(#clip0_1105_239622)">
<path fill-rule="evenodd" clip-rule="evenodd" d="M7.55237 3H16.5524V4.5H7.55237V3ZM20.7225 9.86279V19.5003H3.75V9.86279H20.7225ZM20.7525 8.36279H3.75C3.35218 8.36279 2.97067 8.52085 2.68936 8.80215C2.40806 9.08346 2.25 9.46497 2.25 9.86279V19.5003C2.25 19.8981 2.40806 20.2797 2.68936 20.561C2.97067 20.8423 3.35218 21.0003 3.75 21.0003H20.7525C21.1504 21.0003 21.5319 20.8423 21.8132 20.561C22.0945 20.2797 22.2525 19.8981 22.2525 19.5003V9.86279C22.2525 9.46497 22.0945 9.08346 21.8132 8.80215C21.5319 8.52085 21.1504 8.36279 20.7525 8.36279ZM18.9675 5.67041H5.46753V7.17041H18.9675V5.67041Z" fill="#D2D6EF"/>
</g>
<defs>
<clipPath id="clip0_1105_239622">
<rect width="24" height="24" fill="white"/>
</clipPath>
</defs>
</svg>
