<svg width="24" height="24" viewBox="0 0 24 24" fill="none" xmlns="http://www.w3.org/2000/svg">
<g clip-path="url(#clip0_1105_239610)">
<path fill-rule="evenodd" clip-rule="evenodd" d="M6.4481 3.68495C8.0944 2.58649 10.0295 2.00096 12.0086 2.00244C14.6608 2.00443 17.2037 3.05939 19.0784 4.93547C20.953 6.81156 22.0061 9.35523 22.0061 12.0074C22.0061 13.9865 21.4191 15.9212 20.3194 17.5667C19.2197 19.2122 17.6567 20.4945 15.8281 21.2515C13.9995 22.0086 11.9875 22.2063 10.0465 21.8196C8.10551 21.433 6.32277 20.4793 4.92384 19.0794C3.52492 17.6794 2.57262 15.896 2.18742 13.9547C1.80222 12.0134 2.00145 10.0015 2.75986 8.17346C3.51826 6.34542 4.8018 4.78342 6.4481 3.68495ZM15.5183 15.5501C16.6163 16.0662 17.587 16.8182 18.3611 17.7524C19.4702 16.5237 20.1991 14.9996 20.4595 13.365C20.7199 11.7304 20.5007 10.0553 19.8284 8.54274C19.156 7.03018 18.0595 5.74504 16.6715 4.8431C15.2836 3.94116 13.6639 3.46111 12.0086 3.46111C10.3533 3.46111 8.73363 3.94116 7.34569 4.8431C5.95775 5.74504 4.86119 7.03018 4.18886 8.54274C3.51652 10.0553 3.29726 11.7304 3.55769 13.365C3.81812 14.9996 4.54705 16.5237 5.65613 17.7524C6.43026 16.8182 7.4009 16.0662 8.49893 15.5501C9.59696 15.0339 10.7953 14.7663 12.0086 14.7663C13.2219 14.7663 14.4203 15.0339 15.5183 15.5501ZM12.7398 6.92371C14.5177 7.34332 15.6187 9.12471 15.1991 10.9025C14.7795 12.6804 12.9981 13.7814 11.2203 13.3618C9.44247 12.9422 8.34137 11.1609 8.76098 9.38302C9.18059 7.60518 10.962 6.5041 12.7398 6.92371Z" fill="white"/>
</g>
<defs>
<clipPath id="clip0_1105_239610">
<rect width="24" height="24" fill="white"/>
</clipPath>
</defs>
</svg>
