<svg width="18" height="18" viewBox="0 0 18 18" fill="none" xmlns="http://www.w3.org/2000/svg">
<g clip-path="url(#clip0_874_76371)">
<path fill-rule="evenodd" clip-rule="evenodd" d="M10.7549 3.90617C10.3112 3.45706 9.71119 3.20626 9.08727 3.20626C8.46335 3.20626 7.86332 3.45706 7.41961 3.90617C6.97564 4.35556 6.72477 4.96678 6.72477 5.60579V7.4644H13.5835C13.9563 7.4644 14.2585 7.76661 14.2585 8.1394V15.4969C14.2585 15.8697 13.9563 16.1719 13.5835 16.1719H4.59102C4.21822 16.1719 3.91602 15.8697 3.91602 15.4969V8.1394C3.91602 7.76661 4.21822 7.4644 4.59102 7.4644H5.37477V5.60579C5.37477 4.61398 5.76395 3.66116 6.45925 2.95738C7.15483 2.25331 8.1 1.85626 9.08727 1.85626C10.0745 1.85626 11.0197 2.25331 11.7153 2.95738C11.9773 3.22257 11.9747 3.64995 11.7095 3.91195C11.4443 4.17395 11.0169 4.17136 10.7549 3.90617ZM5.26602 14.8219V8.8144H12.9085V14.8219H5.26602Z" fill="#237804"/>
</g>
<defs>
<clipPath id="clip0_874_76371">
<rect width="18" height="18" fill="white"/>
</clipPath>
</defs>
</svg>
