<svg width="32" height="32" viewBox="0 0 32 32" fill="none" xmlns="http://www.w3.org/2000/svg">
<g clip-path="url(#clip0_920_43794)">
<path fill-rule="evenodd" clip-rule="evenodd" d="M11.6299 10.5698C11.337 10.2769 10.8622 10.2769 10.5693 10.5698C10.2764 10.8627 10.2764 11.3375 10.5693 11.6304L14.9649 16.026L10.5702 20.4208C10.2773 20.7136 10.2773 21.1885 10.5702 21.4814C10.8631 21.7743 11.3379 21.7743 11.6308 21.4814L16.0255 17.0867L20.4203 21.4814C20.7132 21.7743 21.188 21.7743 21.4809 21.4814C21.7738 21.1885 21.7738 20.7136 21.4809 20.4208L17.0862 16.026L21.4818 11.6304C21.7747 11.3375 21.7747 10.8627 21.4818 10.5698C21.1889 10.2769 20.714 10.2769 20.4211 10.5698L16.0255 14.9654L11.6299 10.5698Z" fill="black" fill-opacity="0.85"/>
</g>
<defs>
<clipPath id="clip0_920_43794">
<rect width="14" height="14" fill="white" transform="translate(9 9)"/>
</clipPath>
</defs>
</svg>
