<svg width="16" height="16" viewBox="0 0 16 16" fill="none" xmlns="http://www.w3.org/2000/svg">
<path fill-rule="evenodd" clip-rule="evenodd" d="M12.8245 3.17571C13.0588 3.41003 13.0588 3.78993 12.8245 4.02424L3.22446 13.6242C2.99014 13.8586 2.61025 13.8586 2.37593 13.6242C2.14162 13.3899 2.14162 13.01 2.37593 12.7757L11.9759 3.17571C12.2102 2.9414 12.5901 2.9414 12.8245 3.17571Z" fill="#262626"/>
<path fill-rule="evenodd" clip-rule="evenodd" d="M6.2002 3.19998C6.2002 2.8686 6.46882 2.59998 6.8002 2.59998H12.8002C13.1316 2.59998 13.4002 2.8686 13.4002 3.19998V9.19998C13.4002 9.53135 13.1316 9.79998 12.8002 9.79998C12.4688 9.79998 12.2002 9.53135 12.2002 9.19998V3.79998H6.8002C6.46882 3.79998 6.2002 3.53135 6.2002 3.19998Z" fill="#262626"/>
</svg>
