<svg width="16" height="16" viewBox="0 0 16 16" fill="none" xmlns="http://www.w3.org/2000/svg">
<path fill-rule="evenodd" clip-rule="evenodd" d="M4.04514 1.92405C5.28277 1.0981 6.73756 0.657825 8.22548 0.658938C10.2181 0.660427 12.1287 1.45265 13.5377 2.86166C14.9468 4.27068 15.739 6.18128 15.7405 8.17393C15.7416 9.66185 15.3013 11.1167 14.4754 12.3543C13.6494 13.5919 12.4749 14.5567 11.1005 15.1266C9.72602 15.6965 8.21341 15.846 6.75403 15.556C5.29465 15.2659 3.9541 14.5495 2.90198 13.4974C1.84986 12.4453 1.13346 11.1048 0.843453 9.64538C0.553447 8.18599 0.702862 6.67339 1.27278 5.29894C1.84269 3.9245 2.80752 2.75 4.04514 1.92405ZM11.7624 2.8903C10.7105 2.18729 9.47379 1.81206 8.20862 1.81206C6.51382 1.81354 4.88877 2.48708 3.68984 3.68495C2.49091 4.88282 1.81594 6.50725 1.81296 8.20205C1.81185 9.46722 2.18603 10.7043 2.88811 11.7568C3.59019 12.8093 4.58864 13.6299 5.75719 14.1149C6.92574 14.5998 8.21189 14.7273 9.45289 14.4811C10.6939 14.235 11.834 13.6263 12.729 12.7321C13.624 11.8378 14.2337 10.6983 14.4809 9.45748C14.7282 8.21669 14.6018 6.93044 14.1179 5.76147C13.634 4.59249 12.8143 3.5933 11.7624 2.8903Z" fill="#A8071A"/>
<path fill-rule="evenodd" clip-rule="evenodd" d="M8.20862 1.81206C9.47379 1.81206 10.7105 2.18729 11.7624 2.8903C12.8143 3.5933 13.634 4.59249 14.1179 5.76147C14.6018 6.93044 14.7282 8.21669 14.4809 9.45748C14.2337 10.6983 13.624 11.8378 12.729 12.7321C11.834 13.6263 10.6939 14.235 9.45289 14.4811C8.21189 14.7273 6.92574 14.5998 5.75719 14.1149C4.58864 13.6299 3.59019 12.8093 2.88811 11.7568C2.18603 10.7043 1.81185 9.46722 1.81296 8.20205C1.81594 6.50725 2.49091 4.88282 3.68984 3.68495C4.88877 2.48708 6.51382 1.81354 8.20862 1.81206ZM7.6626 10.1318C7.82083 10.29 8.03545 10.3789 8.25922 10.3789C8.483 10.3789 8.69762 10.29 8.85585 10.1318C9.01408 9.97356 9.10297 9.75895 9.10297 9.53517V4.65267C9.10297 4.4289 9.01408 4.21428 8.85585 4.05605C8.69762 3.89781 8.483 3.80892 8.25922 3.80892C8.03545 3.80892 7.82083 3.89781 7.6626 4.05605C7.50436 4.21428 7.41547 4.4289 7.41547 4.65267V9.53517C7.41547 9.75895 7.50436 9.97356 7.6626 10.1318ZM7.79045 12.9475C7.92921 13.0402 8.09235 13.0896 8.25922 13.0896C8.483 13.0896 8.69762 13.0007 8.85585 12.8425C9.01408 12.6843 9.10297 12.4697 9.10297 12.2459C9.10297 12.079 9.05348 11.9159 8.96077 11.7772C8.86806 11.6384 8.73629 11.5302 8.58212 11.4664C8.42794 11.4025 8.25831 11.3858 8.09464 11.4184C7.93096 11.4509 7.7806 11.5313 7.6626 11.6493C7.5446 11.7673 7.46424 11.9176 7.43168 12.0813C7.39912 12.245 7.41585 12.4146 7.47971 12.5688C7.54357 12.723 7.6517 12.8548 7.79045 12.9475Z" fill="#A8071A"/>
</svg>
