<svg width="18" height="18" viewBox="0 0 18 18" fill="none" xmlns="http://www.w3.org/2000/svg">
<path fill-rule="evenodd" clip-rule="evenodd" d="M11.4809 1.20055C11.3069 1.09992 11.0924 1.09981 10.9183 1.20027C10.7441 1.30072 10.6369 1.48647 10.6369 1.6875V2.67442C8.80552 2.80188 7.0661 3.5521 5.71309 4.80941C4.22213 6.19491 3.31096 8.09349 3.16274 10.1234C3.14315 10.3917 3.31621 10.6363 3.57569 10.707C3.83517 10.7778 4.10846 10.655 4.22782 10.414C4.80368 9.25114 5.69396 8.27297 6.79764 7.59053C7.90131 6.90809 9.1742 6.54873 10.4718 6.55315L10.4761 6.55313C10.5372 6.55288 10.5983 6.55354 10.6593 6.55514V7.68373C10.6593 7.88476 10.7666 8.07051 10.9407 8.17096C11.1149 8.27142 11.3294 8.27132 11.5034 8.1707L13.5172 7.00637L14.0839 6.67196L14.0858 6.67084L16.2352 5.39131L16.6464 5.15794C16.8219 5.0583 16.9307 4.87222 16.9312 4.67036C16.9318 4.46849 16.8242 4.28179 16.6492 4.18114L14.0684 2.69679L14.0673 2.69613L11.4809 1.20055ZM13.5064 3.67134L15.2452 4.67142L13.5123 5.70304L13.5104 5.70416L12.9519 6.03366L11.7843 6.70874V6.02998C11.7843 5.74309 11.5684 5.50216 11.2833 5.47085C11.0143 5.44131 10.744 5.42708 10.4735 5.42813C8.96635 5.42339 7.48795 5.84099 6.20598 6.63368C5.79685 6.88665 5.41296 7.1746 5.05811 7.49333C5.41973 6.80324 5.89821 6.17314 6.47891 5.63351C7.76164 4.44151 9.44806 3.77928 11.1991 3.77998C11.3484 3.78004 11.4915 3.72081 11.597 3.61531C11.7026 3.50982 11.7619 3.36671 11.7619 3.21748V2.66254L13.5053 3.67068L13.5064 3.67134ZM2.38837 4.64963C2.47695 4.56104 2.59713 4.51126 2.72248 4.51126H4.72498C5.03564 4.51126 5.28748 4.25942 5.28748 3.94876C5.28748 3.6381 5.03564 3.38626 4.72498 3.38626H2.72248C2.29884 3.38626 1.89249 3.55452 1.59287 3.85413C1.29326 4.15375 1.125 4.5601 1.125 4.98374V15.3675C1.125 15.5772 1.16627 15.7849 1.24658 15.9788C1.32684 16.1726 1.4445 16.3487 1.59287 16.4971C1.74124 16.6455 1.91738 16.7631 2.11116 16.8434C2.30504 16.9237 2.51276 16.965 2.72248 16.965H13.0768H13.0781V16.4025L13.0751 16.965L13.0768 16.965C13.2867 16.9659 13.4947 16.9255 13.6891 16.8459C13.8839 16.7661 14.061 16.6486 14.2103 16.5002C14.3595 16.3517 14.478 16.1752 14.5588 15.9808C14.6397 15.7864 14.6812 15.578 14.6812 15.3675V8.72438C14.6812 8.41372 14.4294 8.16188 14.1187 8.16188C13.8081 8.16188 13.5562 8.41372 13.5562 8.72438V15.3675C13.5562 15.4298 13.5439 15.4914 13.52 15.5489C13.4961 15.6064 13.4611 15.6586 13.4169 15.7025C13.3727 15.7465 13.3204 15.7812 13.2628 15.8048C13.2052 15.8284 13.1435 15.8403 13.0812 15.84H2.72248C2.66037 15.84 2.59895 15.8278 2.54168 15.804C2.48432 15.7803 2.43222 15.7455 2.38837 15.7016C2.34452 15.6578 2.3097 15.6057 2.28594 15.5483C2.26222 15.491 2.25 15.4296 2.25 15.3675V4.98374C2.25 4.85839 2.29978 4.73821 2.38837 4.64963Z" fill="white"/>
</svg>
