<svg width="14" height="14" viewBox="0 0 14 14" fill="none" xmlns="http://www.w3.org/2000/svg">
<path fill-rule="evenodd" clip-rule="evenodd" d="M4.10565 5.45917V4.29085C4.10565 3.52288 4.41072 2.78636 4.95376 2.24332C5.4968 1.70028 6.23332 1.3952 7.0013 1.3952C7.76927 1.3952 8.50579 1.70028 9.04883 2.24332C9.59187 2.78636 9.89695 3.52288 9.89695 4.29085V5.45917H10.7266C11.0165 5.45917 11.2516 5.69422 11.2516 5.98417V12.0801C11.2516 12.3701 11.0165 12.6051 10.7266 12.6051H3.27598C2.98603 12.6051 2.75098 12.3701 2.75098 12.0801V5.98417C2.75098 5.69422 2.98603 5.45917 3.27598 5.45917H4.10565ZM5.69622 2.98578C6.04235 2.63965 6.5118 2.4452 7.0013 2.4452C7.49079 2.4452 7.96024 2.63965 8.30637 2.98578C8.6525 3.33191 8.84695 3.80136 8.84695 4.29085V5.45917H5.15565V4.29085C5.15565 3.80136 5.3501 3.33191 5.69622 2.98578ZM4.62778 6.50917L4.63065 6.50918L4.63352 6.50917H9.36908L9.37195 6.50918L9.37482 6.50917H10.2016V11.5551H3.80098V6.50917H4.62778Z" fill="black" fill-opacity="0.85"/>
</svg>
