<svg width="16" height="16" viewBox="0 0 16 16" fill="none" xmlns="http://www.w3.org/2000/svg">
<path fill-rule="evenodd" clip-rule="evenodd" d="M7.93396 4.26816C7.67905 4.27482 7.42795 4.33162 7.19499 4.43531C6.96204 4.53901 6.75178 4.68758 6.57624 4.87254C6.4007 5.05749 6.26331 5.27521 6.17191 5.51326C6.08051 5.75131 6.0369 6.00503 6.04355 6.25994C6.05021 6.51485 6.10701 6.76595 6.21071 6.99891C6.31441 7.23187 6.46297 7.44212 6.64793 7.61766C6.83288 7.7932 7.0506 7.93059 7.28865 8.02199C7.5267 8.11339 7.78043 8.157 8.03534 8.15035C8.29024 8.14369 8.54134 8.08689 8.7743 7.98319C9.00726 7.8795 9.21751 7.73093 9.39305 7.54597C9.56859 7.36102 9.70598 7.1433 9.79738 6.90525C9.88878 6.6672 9.9324 6.41347 9.92574 6.15857C9.91909 5.90366 9.86229 5.65256 9.75859 5.4196C9.65489 5.18664 9.50632 4.97639 9.32137 4.80085C9.13641 4.62531 8.91869 4.48792 8.68064 4.39652C8.44259 4.30512 8.18887 4.2615 7.93396 4.26816ZM7.683 5.5316C7.77199 5.49199 7.86791 5.47029 7.96528 5.46775C8.06266 5.46521 8.15958 5.48187 8.25052 5.51678C8.34146 5.5517 8.42462 5.60418 8.49528 5.67124C8.56593 5.7383 8.62268 5.81861 8.6623 5.9076C8.70191 5.99659 8.72361 6.09252 8.72615 6.18989C8.72869 6.28727 8.71203 6.38419 8.67712 6.47513C8.6422 6.56606 8.58972 6.64923 8.52266 6.71988C8.4556 6.79054 8.37529 6.84729 8.2863 6.8869C8.19731 6.92652 8.10139 6.94822 8.00401 6.95076C7.90663 6.9533 7.80971 6.93664 7.71878 6.90172C7.62784 6.86681 7.54467 6.81432 7.47402 6.74727C7.40336 6.68021 7.34661 6.5999 7.307 6.5109C7.26738 6.42191 7.24569 6.32599 7.24314 6.22862C7.2406 6.13124 7.25726 6.03432 7.29218 5.94338C7.32709 5.85245 7.37958 5.76928 7.44663 5.69862C7.51369 5.62797 7.59401 5.57122 7.683 5.5316Z" fill="#595959"/>
<path fill-rule="evenodd" clip-rule="evenodd" d="M7.71212 14.1816C7.71212 14.1816 7.71224 14.1818 8.18312 13.8099L7.71212 14.1816C7.82932 14.3301 8.00974 14.4147 8.19879 14.4097C8.38783 14.4048 8.56348 14.311 8.67277 14.1567L8.18312 13.8099C8.67277 14.1567 8.67277 14.1567 8.67277 14.1567L8.67613 14.152L8.68501 14.1393L8.71863 14.0914C8.74785 14.0495 8.79038 13.9883 8.8443 13.9099C8.95211 13.7531 9.10559 13.5272 9.28937 13.2495C9.65657 12.6946 10.1465 11.9299 10.6356 11.0931C11.1235 10.2584 11.6169 9.3411 11.9864 8.48293C12.3458 7.64812 12.6265 6.78465 12.6083 6.08851C12.5763 4.86224 12.0585 3.6989 11.1687 2.85443C10.279 2.00997 9.09018 1.55354 7.86391 1.58556C6.63763 1.61758 5.47429 2.13543 4.62982 3.02519C3.78536 3.91494 3.32893 5.10371 3.36095 6.32999C3.37913 7.02613 3.70448 7.87377 4.10703 8.68869C4.52083 9.52641 5.06144 10.4167 5.59219 11.2248C6.12427 12.0349 6.65348 12.773 7.04913 13.308C7.24716 13.5758 7.41222 13.7933 7.52807 13.9443C7.58601 14.0198 7.63167 14.0787 7.66303 14.1189L7.69911 14.1651L7.70864 14.1772L7.71119 14.1805L7.71212 14.1816ZM5.50021 3.85127C6.12559 3.19236 6.9871 2.80887 7.89523 2.78515C8.80336 2.76144 9.68371 3.09945 10.3426 3.72482C11.0015 4.3502 11.385 5.21171 11.4087 6.11984C11.4196 6.53474 11.2366 7.19002 10.8842 8.00836C10.5419 8.80334 10.0753 9.6736 9.59958 10.4876C9.12504 11.2995 8.64777 12.0446 8.28864 12.5873C8.24249 12.657 8.19832 12.7234 8.15639 12.7861C8.11124 12.7257 8.06367 12.6617 8.01394 12.5945C7.62697 12.0712 7.11147 11.3521 6.5952 10.566C6.07761 9.77799 5.56626 8.93327 5.18292 8.15724C4.78833 7.35841 4.57138 6.71357 4.56054 6.29867C4.53683 5.39054 4.87484 4.51019 5.50021 3.85127Z" fill="#595959"/>
</svg>
