<svg width="16" height="16" viewBox="0 0 16 16" fill="none" xmlns="http://www.w3.org/2000/svg">
<path d="M10.8749 7.49927H5.12488C5.05613 7.49927 4.99988 7.55552 4.99988 7.62427V8.37427C4.99988 8.44302 5.05613 8.49927 5.12488 8.49927H10.8749C10.9436 8.49927 10.9999 8.44302 10.9999 8.37427V7.62427C10.9999 7.55552 10.9436 7.49927 10.8749 7.49927Z" fill="#1890FF"/>
<path d="M8 1C4.13437 1 1 4.13437 1 8C1 11.8656 4.13437 15 8 15C11.8656 15 15 11.8656 15 8C15 4.13437 11.8656 1 8 1ZM8 13.8125C4.79063 13.8125 2.1875 11.2094 2.1875 8C2.1875 4.79063 4.79063 2.1875 8 2.1875C11.2094 2.1875 13.8125 4.79063 13.8125 8C13.8125 11.2094 11.2094 13.8125 8 13.8125Z" fill="#1890FF"/>
</svg>
