<svg width="16" height="16" viewBox="0 0 16 16" fill="none" xmlns="http://www.w3.org/2000/svg">
<path d="M10.8749 7.50073H8.49988V5.12573C8.49988 5.05698 8.44363 5.00073 8.37488 5.00073H7.62488C7.55613 5.00073 7.49988 5.05698 7.49988 5.12573V7.50073H5.12488C5.05613 7.50073 4.99988 7.55698 4.99988 7.62573V8.37573C4.99988 8.44448 5.05613 8.50073 5.12488 8.50073H7.49988V10.8757C7.49988 10.9445 7.55613 11.0007 7.62488 11.0007H8.37488C8.44363 11.0007 8.49988 10.9445 8.49988 10.8757V8.50073H10.8749C10.9436 8.50073 10.9999 8.44448 10.9999 8.37573V7.62573C10.9999 7.55698 10.9436 7.50073 10.8749 7.50073Z" fill="#1890FF"/>
<path d="M8 1C4.13437 1 1 4.13437 1 8C1 11.8656 4.13437 15 8 15C11.8656 15 15 11.8656 15 8C15 4.13437 11.8656 1 8 1ZM8 13.8125C4.79063 13.8125 2.1875 11.2094 2.1875 8C2.1875 4.79063 4.79063 2.1875 8 2.1875C11.2094 2.1875 13.8125 4.79063 13.8125 8C13.8125 11.2094 11.2094 13.8125 8 13.8125Z" fill="#1890FF"/>
</svg>
