<svg width="18" height="13" viewBox="0 0 18 13" fill="none" xmlns="http://www.w3.org/2000/svg">
<path fill-rule="evenodd" clip-rule="evenodd" d="M14.0625 3.79375L13.7812 3.9625L12.9375 4.6375V1.9375H1.6875V11.6687H12.9375V8.96875L13.7812 9.64375L14.0625 9.8125V11.6687C14.0625 12.2875 13.5563 12.7937 12.9375 12.7937H1.6875C1.06875 12.7937 0.5625 12.2875 0.5625 11.6687V1.9375C0.5625 1.31875 1.06875 0.8125 1.6875 0.8125H12.9375C13.5563 0.8125 14.0625 1.31875 14.0625 1.9375V3.79375ZM17.0438 10.7125V2.95L14.4563 4.8625L14.0625 5.2L12.9375 6.04375L11.925 6.83125L12.9375 7.5625L14.0625 8.40625L14.4563 8.74375L17.0438 10.7125Z" fill="#237804"/>
</svg>
