<svg width="17" height="16" viewBox="0 0 17 16" fill="none" xmlns="http://www.w3.org/2000/svg">
<path fill-rule="evenodd" clip-rule="evenodd" d="M13.3245 3.17535C13.5588 3.40966 13.5588 3.78956 13.3245 4.02387L3.72446 13.6239C3.49014 13.8582 3.11025 13.8582 2.87593 13.6239C2.64162 13.3896 2.64162 13.0097 2.87593 12.7753L12.4759 3.17535C12.7102 2.94103 13.0901 2.94103 13.3245 3.17535Z" fill="black" fill-opacity="0.85"/>
<path fill-rule="evenodd" clip-rule="evenodd" d="M6.7002 3.19961C6.7002 2.86824 6.96882 2.59961 7.3002 2.59961H13.3002C13.6316 2.59961 13.9002 2.86824 13.9002 3.19961V9.19961C13.9002 9.53098 13.6316 9.79961 13.3002 9.79961C12.9688 9.79961 12.7002 9.53098 12.7002 9.19961V3.79961H7.3002C6.96882 3.79961 6.7002 3.53098 6.7002 3.19961Z" fill="black" fill-opacity="0.85"/>
</svg>
