<svg width="18" height="13" viewBox="0 0 18 13" fill="none" xmlns="http://www.w3.org/2000/svg">
<path fill-rule="evenodd" clip-rule="evenodd" d="M14.0625 1.9375V3.175L12.9375 2.33125V1.9375H1.6875V11.6687H12.9375V11.275L14.0625 10.4313V11.6687C14.0625 12.2875 13.5562 12.7937 12.9375 12.7937H1.6875C1.06875 12.7937 0.5625 12.2875 0.5625 11.6687V1.9375C0.5625 1.31875 1.06875 0.8125 1.6875 0.8125H12.9375C13.5562 0.8125 14.0625 1.31875 14.0625 1.9375ZM14.4563 8.74375L17.0438 6.83125L14.4563 4.8625L14.0625 4.58125L12.9375 3.7375L11.925 2.95V10.7125L12.9375 9.925L14.0625 9.08125L14.4563 8.74375Z" fill="#D48806"/>
</svg>
