<svg width="18" height="18" viewBox="0 0 18 18" fill="none" xmlns="http://www.w3.org/2000/svg">
<g clip-path="url(#clip0_134_86383)">
<path fill-rule="evenodd" clip-rule="evenodd" d="M14.0625 5.79375L13.7812 5.9625L12.9375 6.6375V3.9375H1.6875V13.6687H12.9375V10.9688L13.7812 11.6438L14.0625 11.8125V13.6687C14.0625 14.2875 13.5563 14.7937 12.9375 14.7937H1.6875C1.06875 14.7937 0.5625 14.2875 0.5625 13.6687V3.9375C0.5625 3.31875 1.06875 2.8125 1.6875 2.8125H12.9375C13.5563 2.8125 14.0625 3.31875 14.0625 3.9375V5.79375ZM17.0438 12.7125V4.95L14.4563 6.8625L14.0625 7.2L12.9375 8.04375L11.925 8.83125L12.9375 9.5625L14.0625 10.4062L14.4563 10.7438L17.0438 12.7125Z" fill="#434343"/>
</g>
<defs>
<clipPath id="clip0_134_86383">
<rect width="18" height="18" fill="white"/>
</clipPath>
</defs>
</svg>
