<svg width="372" height="80" viewBox="0 0 372 80" fill="none" xmlns="http://www.w3.org/2000/svg">
<g clip-path="url(#clip0_380_537374)">
<path d="M26.0866 69.2745C25.7731 69.2562 25.4669 69.1652 25.1891 69.0079C24.8935 68.8416 24.6334 68.6112 24.4252 68.3311L13.9986 53.1966C13.8802 52.983 13.688 52.8282 13.4639 52.7659H13.1775C12.948 52.7718 12.7267 52.8582 12.5473 53.012L5.97812 59.0207C5.73195 59.2844 5.53719 59.5981 5.40522 59.9435C5.27008 60.2661 5.19856 60.6152 5.19516 60.9689V68.0851C5.20016 68.2432 5.1757 68.4009 5.12324 68.5488C5.07077 68.6967 4.99135 68.8318 4.88962 68.9464C4.79477 69.0526 4.68528 69.1425 4.56498 69.213H1.37588C1.25907 69.1549 1.15497 69.071 1.07034 68.9669C0.96861 68.8524 0.889187 68.7172 0.836721 68.5693C0.784255 68.4214 0.759803 68.2637 0.764796 68.1056V36.9136C0.766719 36.6085 0.875849 36.3156 1.07034 36.0933C1.14875 35.9772 1.25409 35.8853 1.37588 35.8267C1.50827 35.7985 1.64452 35.7985 1.77691 35.8267H4.14486C4.28632 35.8277 4.42595 35.8611 4.55439 35.9248C4.68283 35.9884 4.79713 36.0808 4.88962 36.1958C4.98933 36.3034 5.06779 36.4315 5.12029 36.5725C5.1728 36.7134 5.19826 36.8643 5.19516 37.0161V52.8274C5.19516 53.1761 5.19516 53.3811 5.32884 53.4221C5.39761 53.4422 5.47012 53.4422 5.5389 53.4221C5.70307 53.4108 5.85841 53.3383 5.97812 53.2171L24.1961 36.5239C24.4469 36.282 24.7386 36.0941 25.0554 35.9702C25.3653 35.8345 25.6949 35.7582 26.0293 35.7446H30.5361C30.8416 35.7446 31.0135 35.7446 31.0135 35.9907C30.9797 36.1935 30.8778 36.376 30.7271 36.5034L17.6269 48.3773C17.451 48.5172 17.3287 48.7215 17.2832 48.9515V49.2181C17.2831 49.4906 17.3633 49.7562 17.5123 49.9769L30.326 68.2901C30.4222 68.443 30.4813 68.6192 30.4979 68.8028C30.4979 69.0899 30.326 69.2335 29.9632 69.2335L26.0866 69.2745Z" fill="url(#paint0_linear_380_537374)"/>
<path d="M37.2199 37.7955C36.8017 37.2061 36.5753 36.4857 36.5753 35.7447C36.5753 35.0038 36.8017 34.2833 37.2199 33.694C37.4521 33.3892 37.7551 33.1558 38.0983 33.0172C38.4408 32.8569 38.8139 32.7866 39.1868 32.8121C39.5434 32.7946 39.8999 32.8503 40.2371 32.9762C40.5738 33.1196 40.8793 33.336 41.1346 33.6119C41.5886 34.1804 41.8211 34.9149 41.7839 35.6627C41.8027 36.4076 41.5724 37.1352 41.1346 37.7134C40.8991 38.0242 40.5979 38.2703 40.2562 38.4312C39.5596 38.6633 38.814 38.6633 38.1174 38.4312C37.7777 38.2941 37.471 38.0768 37.2199 37.7955ZM37.9264 69.2746H37.6018C37.5012 69.2253 37.4105 69.1557 37.3344 69.0695C37.2383 68.9686 37.1631 68.847 37.1137 68.7127C37.0644 68.5784 37.042 68.4344 37.048 68.2902V45.1167C37.0291 44.9876 37.0291 44.8561 37.048 44.727C37.0932 44.6065 37.1579 44.4954 37.239 44.3989C37.32 44.3192 37.4098 44.2503 37.5063 44.1938C37.6137 44.1735 37.7236 44.1735 37.831 44.1938H40.3326C40.4464 44.1732 40.5625 44.1732 40.6763 44.1938C40.7851 44.2379 40.8831 44.308 40.9628 44.3989C41.0439 44.4954 41.1085 44.6065 41.1537 44.727C41.1727 44.8561 41.1727 44.9876 41.1537 45.1167V68.2902C41.1537 68.5475 41.0653 68.7958 40.9055 68.9875C40.8258 69.0784 40.7278 69.1485 40.619 69.1926H40.2753L37.9264 69.2746Z" fill="url(#paint1_linear_380_537374)"/>
<path d="M54.2347 67.675C52.2443 66.6641 50.5477 65.0902 49.327 63.1223C48.1474 61.1622 47.5299 58.8731 47.551 56.5394C47.5123 54.5909 47.8776 52.6575 48.6204 50.8793C49.2883 49.2435 50.3017 47.7971 51.5803 46.6548C52.8602 45.4812 54.3384 44.583 55.9343 44.0093C57.5989 43.3896 59.3477 43.0708 61.1094 43.0659C63.2859 43.0368 65.436 43.5789 67.3731 44.645C69.1902 45.6228 70.7325 47.1021 71.8416 48.9311C72.6092 50.3079 73.1154 51.8343 73.3311 53.4223L73.4648 54.4066C73.5568 55.0857 73.6015 55.7712 73.5985 56.4574V57.1136C73.5781 57.3577 73.4843 57.5881 73.3311 57.7699C73.2664 57.8602 73.1808 57.9309 73.0829 57.9749C72.9755 57.9952 72.8656 57.9952 72.7583 57.9749H52.4779C52.1341 57.9749 51.9432 58.139 51.9432 58.4466C51.9241 58.5826 51.9241 58.7208 51.9432 58.8568L52.3442 59.6155C52.649 60.2313 53.0071 60.8149 53.4136 61.3587C53.8707 61.9899 54.4264 62.5311 55.0559 62.9583C57.2241 64.2521 59.681 64.8833 62.1598 64.7834C63.9416 64.8374 65.7152 64.5025 67.3731 63.7991L69.2827 62.7532L70.0657 62.3225C70.1659 62.2603 70.2759 62.2186 70.3903 62.1995H70.734C70.8416 62.2363 70.9397 62.2994 71.0205 62.3841C71.1067 62.4599 71.1725 62.559 71.2114 62.6712L72.5864 65.6243L71.9562 66.0549L71.2878 66.5061C68.3317 68.3981 64.9518 69.3906 61.5105 69.3771C58.9943 69.4328 56.5014 68.8496 54.2347 67.675ZM69.2254 53.8529C69.2581 53.8503 69.2899 53.8408 69.3191 53.825C69.3483 53.8091 69.3743 53.7872 69.3956 53.7605C69.4169 53.7339 69.4331 53.7029 69.4432 53.6695C69.4533 53.6361 69.4572 53.6008 69.4546 53.5658C69.4131 53.1053 69.3235 52.6512 69.1872 52.2123V51.9047C68.9364 51.2866 68.5728 50.7287 68.1178 50.2641C66.2234 48.4767 63.763 47.5372 61.2431 47.6391C56.5263 47.6391 53.6046 49.2797 52.3442 52.5404L52.1341 53.0531V53.3197C52.1361 53.456 52.1689 53.5897 52.2296 53.7094C52.2296 53.8529 52.4397 53.9144 52.6688 53.9144H68.7862C68.9256 53.9345 69.0669 53.9345 69.2063 53.9144L69.2254 53.8529Z" fill="url(#paint2_linear_380_537374)"/>
<path d="M98.5193 69.1515H98.1565C98.0503 69.0933 97.9536 69.0172 97.8701 68.9259C97.7215 68.7285 97.6406 68.4824 97.6409 68.2287V53.6478C97.4706 52.7954 97.1462 51.9872 96.6861 51.2689C96.0576 50.2264 95.1806 49.3837 94.1463 48.8285C93.0643 48.2152 91.8558 47.9049 90.6325 47.9262C89.5131 47.9138 88.4048 48.1658 87.3861 48.6644C86.4275 49.1385 85.5547 49.7912 84.8081 50.5921C84.1288 51.3213 83.5674 52.1668 83.1467 53.0941C82.9779 53.4502 82.8558 53.8298 82.7839 54.222L82.6693 54.6937C82.5773 55.3727 82.5327 56.0582 82.5356 56.7444V68.1261C82.5391 68.3804 82.4579 68.6277 82.3065 68.8234C82.23 68.9172 82.1361 68.993 82.031 69.046C81.9258 69.0989 81.8115 69.1279 81.6954 69.131H78.9073C78.8061 69.0739 78.7155 68.9975 78.64 68.9054C78.5549 68.8137 78.4875 68.705 78.4417 68.5854C78.3958 68.4657 78.3723 68.3375 78.3726 68.2081V44.9526C78.3739 44.6795 78.4691 44.4166 78.64 44.2143C78.716 44.1281 78.8068 44.0585 78.9073 44.0092C79.0147 43.9889 79.1246 43.9889 79.232 44.0092H81.7145C81.8283 43.9886 81.9445 43.9886 82.0582 44.0092C82.1594 44.0662 82.25 44.1427 82.3256 44.2348C82.4911 44.4391 82.5796 44.7024 82.5738 44.9731V47.5775C82.5738 47.9262 82.5738 48.1107 82.803 48.1107C82.9478 48.0891 83.0819 48.017 83.1849 47.9057L83.7196 47.393C84.0907 46.9702 84.4861 46.573 84.9036 46.2035C85.37 45.7468 85.8679 45.3286 86.3931 44.9526C87.9825 43.9057 89.8187 43.3717 91.6828 43.4145C93.6817 43.3147 95.6666 43.8191 97.4117 44.8705C98.4424 45.4983 99.3451 46.3422 100.066 47.352C100.759 48.3444 101.247 49.4839 101.498 50.6947C101.649 51.2806 101.764 51.8766 101.842 52.4788V53.3197C101.842 54.2015 101.957 54.8577 101.957 55.3704V68.2697C101.957 68.3991 101.934 68.5272 101.888 68.6469C101.842 68.7665 101.774 68.8753 101.689 68.9669C101.622 69.0637 101.529 69.1355 101.422 69.172H98.5193V69.1515Z" fill="url(#paint3_linear_380_537374)"/>
<path d="M109.863 69.3976H109.614C109.514 69.3484 109.423 69.2787 109.347 69.1925C109.19 68.9908 109.103 68.7375 109.099 68.4748V34.8629C109.112 34.6208 109.2 34.3903 109.347 34.2066L109.614 33.9811C109.722 33.9607 109.832 33.9607 109.939 33.9811H112.46C112.576 33.9842 112.69 34.0131 112.795 34.0661C112.9 34.119 112.994 34.1948 113.071 34.2887C113.222 34.4843 113.303 34.7316 113.3 34.9859V68.3722C113.303 68.6266 113.222 68.8739 113.071 69.0695C112.994 69.1633 112.9 69.2391 112.795 69.2921C112.69 69.345 112.576 69.374 112.46 69.3771L109.863 69.3976Z" fill="url(#paint4_linear_380_537374)"/>
<path d="M126.19 67.6749C124.723 66.8349 123.425 65.6919 122.371 64.3117C121.337 62.9327 120.577 61.3416 120.136 59.6359C119.35 56.7996 119.523 53.7562 120.624 51.0432C121.724 48.3302 123.682 46.1222 126.152 44.809C128.358 43.715 130.759 43.1484 133.189 43.1484C135.619 43.1484 138.02 43.715 140.226 44.809C142.171 45.8662 143.81 47.4764 144.962 49.4642C145.854 50.9605 146.434 52.6466 146.661 54.4065C146.897 56.1657 146.79 57.9584 146.346 59.6707C145.902 61.3829 145.132 62.9774 144.083 64.3527C143.033 65.726 141.733 66.8562 140.264 67.6749C138.066 68.7992 135.662 69.3826 133.227 69.3826C130.792 69.3826 128.388 68.7992 126.19 67.6749ZM138.068 63.758C139.414 63.1045 140.574 62.0782 141.429 60.7844C142.247 59.5299 142.675 58.0297 142.651 56.4983V55.9856C142.675 54.467 142.247 52.9798 141.429 51.7405C140.574 50.4467 139.414 49.4204 138.068 48.7669C136.552 48.0481 134.913 47.6779 133.256 47.68C131.593 47.6804 129.948 48.0505 128.424 48.7669C127.073 49.4198 125.906 50.4459 125.044 51.7405C124.245 52.9895 123.819 54.4701 123.822 55.9856V56.4983C123.807 58.0283 124.234 59.5256 125.044 60.7844C125.906 62.079 127.073 63.105 128.424 63.758C129.943 64.4908 131.59 64.8683 133.256 64.8654C134.915 64.8704 136.556 64.4928 138.068 63.758Z" fill="url(#paint5_linear_380_537374)"/>
<path d="M172.632 69.1515H172.289L172.021 68.9259C171.867 68.7305 171.78 68.4846 171.773 68.2286V53.6478C171.627 52.7943 171.315 51.9836 170.856 51.2689C170.228 50.2264 169.351 49.3837 168.317 48.8285C167.235 48.2152 166.026 47.9049 164.803 47.9262C163.677 47.9108 162.562 48.1629 161.537 48.6644C159.706 49.6136 158.231 51.2051 157.355 53.1761C157.18 53.5314 157.052 53.911 156.973 54.304V54.7757C156.872 55.4536 156.827 56.1399 156.84 56.8264V68.2081C156.84 68.4654 156.751 68.7137 156.591 68.9054C156.53 69.012 156.435 69.0919 156.324 69.131H153.02L152.753 68.9054C152.593 68.7137 152.505 68.4654 152.505 68.2081V44.9526C152.499 44.6819 152.588 44.4186 152.753 44.2143C152.829 44.1281 152.92 44.0585 153.02 44.0092C153.128 43.9889 153.238 43.9889 153.345 44.0092H155.866C155.973 43.9889 156.083 43.9889 156.19 44.0092C156.297 44.0457 156.391 44.1175 156.458 44.2143C156.623 44.4186 156.712 44.6819 156.706 44.9526V47.5775C156.706 47.9262 156.706 48.1107 156.935 48.1107C157.08 48.0891 157.214 48.017 157.317 47.9057L157.814 47.393C158.138 47.0443 158.52 46.6342 158.998 46.2035C159.473 45.7578 159.97 45.3402 160.487 44.9526C162.084 43.9072 163.926 43.3736 165.796 43.4145C167.795 43.3147 169.78 43.8191 171.525 44.8705C172.527 45.4995 173.401 46.3397 174.094 47.3406C174.786 48.3414 175.283 49.4823 175.554 50.6947C175.707 51.3714 175.822 51.9867 175.898 52.4788V68.2286C175.898 68.4859 175.81 68.7342 175.65 68.9259C175.574 69.0121 175.483 69.0817 175.382 69.131H172.632V69.1515Z" fill="url(#paint6_linear_380_537374)"/>
<path d="M188.712 78.3594L186.917 77.3955C186.766 77.2881 186.643 77.1415 186.56 76.9694C186.476 76.7972 186.435 76.6052 186.439 76.4112V76.001L187.318 73.8272C187.357 73.649 187.451 73.4901 187.585 73.376C187.725 73.2705 187.891 73.2132 188.062 73.212H188.406L189.246 73.6221C189.781 73.9092 190.449 74.2374 191.156 74.5655C192.908 75.2631 194.769 75.5904 196.637 75.5293C198.376 75.6937 200.111 75.1604 201.506 74.0323C202.893 72.9129 203.834 71.272 204.142 69.4386C204.313 68.7823 204.428 68.2081 204.524 67.7365V67.0187C204.615 66.4499 204.66 65.8734 204.657 65.2961C204.657 65.091 204.657 64.9884 204.524 64.9884C204.39 64.9884 204.294 64.9884 204.084 65.2961L203.607 65.8087C203.22 66.2214 202.791 66.586 202.327 66.8956C199.807 68.5923 196.88 69.4619 193.906 69.3976C191.692 69.3959 189.514 68.804 187.566 67.6749C185.738 66.5907 184.23 64.978 183.212 63.0197C182.161 60.9451 181.628 58.6136 181.665 56.2522C181.605 53.8593 182.181 51.4975 183.327 49.4437C184.434 47.4963 186.02 45.9141 187.91 44.8705C190.018 43.7127 192.36 43.1349 194.727 43.1889C197.451 43.162 200.133 43.9122 202.499 45.3627L203.721 46.265L204.161 46.6752C204.269 46.7586 204.393 46.8147 204.524 46.8392C204.715 46.8392 204.791 46.6547 204.791 46.306V44.727C204.772 44.5979 204.772 44.4664 204.791 44.3373C204.824 44.2108 204.891 44.097 204.982 44.0092C205.052 43.9111 205.144 43.8336 205.249 43.7836C205.363 43.763 205.479 43.763 205.593 43.7836H208.095C208.206 43.743 208.327 43.743 208.438 43.7836C208.547 43.8277 208.645 43.8978 208.725 43.9887C208.812 44.0844 208.883 44.1953 208.935 44.3168C208.954 44.4459 208.954 44.5774 208.935 44.7065V67.4288C208.825 68.9605 208.529 70.4702 208.056 71.92C207.45 73.6281 206.505 75.1744 205.287 76.4522C204.154 77.6227 202.808 78.5302 201.334 79.1182C199.854 79.7002 198.289 79.9919 196.713 79.9795C193.967 80.0827 191.234 79.5294 188.712 78.3594ZM200.609 63.717C202.447 62.8032 203.872 61.1426 204.571 59.1004C205.269 57.0582 205.183 54.8018 204.333 52.8275C204.192 52.5024 204.033 52.1873 203.855 51.8841C203.051 50.5736 201.928 49.5241 200.609 48.849C199.091 48.0673 197.422 47.6809 195.739 47.7211C194.001 47.6814 192.277 48.0671 190.698 48.849C189.31 49.5228 188.111 50.5765 187.222 51.9046C186.396 53.2088 185.969 54.7572 186 56.3342C185.98 57.8903 186.422 59.4127 187.26 60.6819C188.154 62.0053 189.351 63.058 190.736 63.7375C192.32 64.5023 194.041 64.8805 195.777 64.8449C197.448 64.8832 199.104 64.4967 200.609 63.717Z" fill="url(#paint7_linear_380_537374)"/>
<path d="M215.829 69.3565H215.428C215.308 69.2934 215.198 69.2104 215.103 69.1104C214.909 68.8797 214.8 68.5806 214.797 68.2696V36.9136C214.8 36.6026 214.909 36.3035 215.103 36.0728C215.198 35.9728 215.308 35.8897 215.428 35.8267H229.406C230.365 35.8475 231.321 35.9297 232.271 36.0728C233.762 36.2784 235.237 36.6075 236.682 37.0571C237.363 37.2641 238.008 37.5897 238.591 38.021C239.49 38.7226 240.214 39.6506 240.7 40.7234C241.187 41.7962 241.42 42.9809 241.38 44.1732C241.406 45.3707 241.131 46.5536 240.583 47.5969C240.035 48.6402 239.235 49.5051 238.267 50.0999L237.828 50.4075C237.579 50.5921 237.446 50.7767 237.446 50.9407C237.446 51.1048 237.579 51.2483 237.847 51.4124L238.916 51.9661C240.205 52.7532 241.244 53.9396 241.895 55.3704C242.509 56.6342 242.805 58.0478 242.755 59.4719C242.862 61.0176 242.577 62.5656 241.932 63.952C241.286 65.3383 240.304 66.5113 239.088 67.3468C237.57 68.3495 235.859 68.9668 234.085 69.1515C233.704 69.1926 233.32 69.1926 232.939 69.1515H230.418L215.829 69.3565ZM232.251 49.2591L233.13 49.0951C234.232 48.8689 235.233 48.2557 235.975 47.3519C236.49 46.6767 236.761 45.8249 236.739 44.9525C236.799 44.2871 236.659 43.6184 236.338 43.0453C236.015 42.4653 235.544 41.996 234.982 41.6918C233.643 41.077 232.199 40.7696 230.743 40.7895H220.259C220.128 40.7479 219.989 40.7479 219.858 40.7895C219.74 40.8551 219.636 40.9458 219.552 41.0561C219.448 41.1646 219.367 41.2958 219.314 41.4408C219.262 41.5859 219.239 41.7414 219.247 41.8969V48.1927C219.239 48.3482 219.262 48.5037 219.314 48.6488C219.367 48.7939 219.448 48.9251 219.552 49.0335C219.636 49.1438 219.74 49.2345 219.858 49.3001C219.989 49.3406 220.128 49.3406 220.259 49.3001H230.246C230.885 49.3 231.522 49.2589 232.156 49.1771L232.251 49.2591ZM233.302 64.1476C234.379 64.0079 235.426 63.6679 236.395 63.1427C237.001 62.761 237.496 62.2075 237.828 61.5431C238.164 60.8779 238.323 60.1255 238.286 59.3693C238.286 57.093 237.045 55.596 234.581 54.8782C233.951 54.7253 233.314 54.609 232.672 54.5296H220.144C220.018 54.509 219.889 54.509 219.762 54.5296C219.635 54.5876 219.523 54.6793 219.438 54.7962C219.333 54.9042 219.255 55.0379 219.209 55.1858C219.19 55.3355 219.19 55.4873 219.209 55.637V63.1632C219.19 63.3198 219.19 63.4784 219.209 63.6349C219.262 63.7787 219.34 63.9108 219.438 64.0246C219.533 64.1245 219.643 64.2076 219.762 64.2707C219.887 64.3118 220.02 64.3118 220.144 64.2707H230.533C231.44 64.2643 232.346 64.1958 233.244 64.0656L233.302 64.1476Z" fill="url(#paint8_linear_380_537374)"/>
<path d="M271.418 69.2746H271.094C270.993 69.2254 270.902 69.1558 270.826 69.0696C270.74 68.9799 270.673 68.871 270.63 68.7505C270.587 68.6301 270.569 68.501 270.578 68.3723V65.3782C270.578 65.0501 270.578 64.9065 270.33 64.9065C270.194 64.9254 270.067 64.99 269.967 65.0911L269.432 65.6243C269.03 66.0332 268.596 66.4037 268.134 66.7317C265.884 68.3821 263.219 69.255 260.495 69.2336C258.139 69.2974 255.807 68.7189 253.716 67.552C251.851 66.5026 250.311 64.8919 249.285 62.9173C248.22 60.8481 247.68 58.5141 247.72 56.1498C247.678 53.75 248.26 51.3853 249.4 49.3208C250.498 47.3569 252.077 45.7539 253.964 44.6861C256.056 43.5209 258.388 42.9424 260.743 43.0045C263.925 42.8947 267.042 43.991 269.547 46.1011L269.986 46.4907C270.084 46.6094 270.221 46.6829 270.368 46.6958C270.559 46.6958 270.673 46.5113 270.673 46.1421V44.5425C270.635 44.4158 270.635 44.2796 270.673 44.1529C270.707 44.0264 270.773 43.9126 270.864 43.8248C270.94 43.7386 271.031 43.6689 271.132 43.6197H274.168C274.269 43.6689 274.359 43.7386 274.435 43.8248C274.517 43.9213 274.581 44.0323 274.626 44.1529C274.664 44.2796 274.664 44.4158 274.626 44.5425V68.2698C274.629 68.3946 274.608 68.5187 274.565 68.6349C274.523 68.751 274.459 68.857 274.378 68.9465C274.312 69.049 274.219 69.1277 274.111 69.1721C274.003 69.1924 273.894 69.1924 273.786 69.1721L271.418 69.2746ZM266.205 63.5735C267.524 62.8798 268.65 61.8261 269.47 60.5179C270.237 59.2096 270.643 57.6954 270.643 56.1498C270.643 54.6042 270.237 53.09 269.47 51.7817C268.654 50.4745 267.527 49.4264 266.205 48.7466C264.659 47.9668 262.966 47.5808 261.259 47.6187C259.583 47.5885 257.923 47.9745 256.408 48.7466C255.073 49.4282 253.922 50.4661 253.067 51.7612C252.3 53.0695 251.894 54.5837 251.894 56.1293C251.894 57.6749 252.3 59.1891 253.067 60.4974C253.929 61.8334 255.109 62.8958 256.485 63.5735C258.001 64.3392 259.661 64.7183 261.335 64.681C263.016 64.7163 264.682 64.3374 266.205 63.5735Z" fill="url(#paint9_linear_380_537374)"/>
<path d="M299.013 69.1515H298.669L298.401 68.9259C298.25 68.7303 298.169 68.483 298.172 68.2286V55.1448C298.192 54.8065 298.16 54.467 298.077 54.14V53.6478C297.961 52.8591 297.709 52.1007 297.332 51.4124C296.719 50.3782 295.863 49.5362 294.85 48.972C293.768 48.3588 292.559 48.0485 291.336 48.0697C290.21 48.0543 289.095 48.3064 288.07 48.808C286.203 49.7381 284.692 51.3317 283.793 53.3196C283.618 53.675 283.489 54.0545 283.411 54.4476V54.9192C283.309 55.5972 283.265 56.2835 283.277 56.97V68.3517C283.281 68.4798 283.261 68.6075 283.218 68.7272C283.176 68.8469 283.111 68.9563 283.029 69.0489C282.967 69.1556 282.873 69.2355 282.761 69.2745C282.65 69.3152 282.529 69.3152 282.418 69.2745H279.572L279.305 69.0489C279.145 68.8572 279.057 68.609 279.057 68.3517V44.9526C279.051 44.6819 279.14 44.4186 279.305 44.2143C279.381 44.1281 279.472 44.0585 279.572 44.0092C279.68 43.9889 279.79 43.9889 279.897 44.0092H282.399C282.51 43.9686 282.631 43.9686 282.742 44.0092C282.843 44.0585 282.934 44.1281 283.01 44.2143C283.175 44.4186 283.264 44.6819 283.258 44.9526V47.5775C283.258 47.9262 283.258 48.1107 283.487 48.1107C283.632 48.0891 283.766 48.017 283.869 47.9057L284.385 47.393C284.709 47.0443 285.11 46.6342 285.569 46.2035C286.044 45.7578 286.541 45.3402 287.058 44.9526C288.655 43.9072 290.497 43.3736 292.367 43.4145C294.366 43.3147 296.351 43.8191 298.096 44.8705C299.098 45.4995 299.972 46.3397 300.665 47.3406C301.357 48.3415 301.854 49.4823 302.125 50.6947C302.278 51.3714 302.393 51.9867 302.469 52.4788L302.564 53.2786V68.2286C302.564 68.4859 302.476 68.7342 302.316 68.9259C302.24 69.0121 302.149 69.0817 302.049 69.131H298.993L299.013 69.1515Z" fill="url(#paint10_linear_380_537374)"/>
<path d="M326.989 69.2336C326.431 69.2078 325.903 68.9505 325.518 68.5158L317.039 57.8109C316.959 57.707 316.853 57.629 316.734 57.5853H316.333C316.126 57.5805 315.923 57.653 315.76 57.7904L311.272 61.7073C311.07 61.9094 310.907 62.1536 310.795 62.4251C310.659 62.6962 310.587 62.9989 310.585 63.3069V68.3107C310.585 68.568 310.496 68.8163 310.337 69.008L310.069 69.2336C309.962 69.2539 309.852 69.2539 309.745 69.2336H307.625C307.511 69.2542 307.395 69.2542 307.281 69.2336C307.182 69.1815 307.097 69.104 307.033 69.008C306.948 68.9163 306.881 68.8076 306.835 68.688C306.789 68.5683 306.765 68.4401 306.766 68.3107V34.6988C306.765 34.5695 306.789 34.4413 306.835 34.3216C306.881 34.202 306.948 34.0932 307.033 34.0016C307.097 33.9056 307.182 33.8281 307.281 33.776H310.127L310.394 34.0016C310.554 34.1933 310.642 34.4415 310.642 34.6988V56.2728C310.642 56.6624 310.757 56.8675 310.986 56.8675C311.118 56.8417 311.239 56.7696 311.33 56.6624L324.85 44.645C325.071 44.4408 325.332 44.2935 325.614 44.2144C325.857 44.109 326.116 44.0534 326.378 44.0503H330.579C330.846 44.0503 330.999 44.0503 330.999 44.2349C330.999 44.4194 330.903 44.481 330.751 44.645L320.362 53.7504C320.152 53.9349 320.057 54.099 320.057 54.2426V54.4681C320.058 54.6835 320.125 54.8924 320.248 55.0629L331.018 68.5158C331.114 68.6459 331.173 68.8022 331.19 68.967C331.19 69.1516 331.056 69.2336 330.751 69.2336H326.989Z" fill="url(#paint11_linear_380_537374)"/>
<path d="M367.301 24.609C368.051 24.5848 368.778 24.3239 369.391 23.8588C370.004 23.3937 370.476 22.745 370.747 21.9937C371.019 21.2424 371.078 20.4219 370.918 19.6346C370.758 18.8472 370.386 18.128 369.847 17.5666C369.309 17.0052 368.628 16.6267 367.891 16.4781C367.153 16.3296 366.391 16.4177 365.7 16.7314C365.009 17.0451 364.419 17.5706 364.004 18.2421C363.589 18.9137 363.368 19.7016 363.367 20.5075C363.367 21.0566 363.47 21.6002 363.669 22.106C363.868 22.6118 364.159 23.0696 364.526 23.4521C364.893 23.8346 365.328 24.1341 365.804 24.3328C366.281 24.5316 366.79 24.6255 367.301 24.609Z" fill="url(#paint12_linear_380_537374)"/>
<path d="M336.976 24.609C337.726 24.5848 338.453 24.3239 339.066 23.8588C339.679 23.3937 340.15 22.745 340.422 21.9937C340.693 21.2424 340.753 20.4219 340.593 19.6346C340.433 18.8472 340.06 18.128 339.522 17.5666C338.984 17.0052 338.303 16.6267 337.565 16.4781C336.828 16.3296 336.066 16.4177 335.375 16.7314C334.683 17.0451 334.094 17.5706 333.679 18.2421C333.264 18.9137 333.043 19.7016 333.042 20.5075C333.042 21.0566 333.144 21.6002 333.344 22.106C333.543 22.6118 333.834 23.0696 334.201 23.4521C334.568 23.8346 335.003 24.1341 335.479 24.3328C335.956 24.5316 336.465 24.6255 336.976 24.609Z" fill="url(#paint13_linear_380_537374)"/>
<path fill-rule="evenodd" clip-rule="evenodd" d="M363.597 28.5465C363.534 27.5244 363.127 26.5616 362.453 25.8373C361.778 25.1129 360.882 24.6765 359.93 24.6091C359.545 24.581 359.159 24.6155 358.784 24.7116C358.475 24.7811 358.154 24.7669 357.85 24.6703C357.547 24.5736 357.271 24.3976 357.047 24.1579L348.835 15.4012C348.599 15.1317 348.436 14.7989 348.362 14.4379C348.288 14.0769 348.306 13.7012 348.415 13.3504C348.614 12.6883 348.654 11.9826 348.529 11.2997C348.48 10.8779 348.521 10.4495 348.65 10.0476C348.779 9.64576 348.993 9.28123 349.274 8.98231C349.559 8.68325 349.902 8.45485 350.278 8.31314C350.654 8.17143 351.055 8.11984 351.451 8.162C351.906 8.24384 352.371 8.24384 352.826 8.162C353.223 8.11984 353.623 8.17143 353.999 8.31314C354.375 8.45485 354.718 8.68325 355.003 8.98231C355.285 9.28123 355.498 9.64576 355.627 10.0476C355.757 10.4495 355.798 10.8779 355.748 11.2997C355.728 11.5385 355.728 11.7786 355.748 12.0174C355.725 12.8578 355.936 13.6863 356.354 14.397C356.773 15.1078 357.379 15.6683 358.095 16.007C358.812 16.3457 359.606 16.4471 360.377 16.2983C361.147 16.1494 361.859 15.7571 362.42 15.1715C362.982 14.5859 363.368 13.8336 363.53 13.0109C363.691 12.1883 363.62 11.3326 363.326 10.5535C363.032 9.77438 362.528 9.10719 361.879 8.63732C361.23 8.16745 360.465 7.91627 359.682 7.91591C359.459 7.89494 359.236 7.89494 359.013 7.91591C358.617 7.96094 358.215 7.91071 357.839 7.76884C357.462 7.62697 357.12 7.39702 356.836 7.09561C356.546 6.82853 356.316 6.49402 356.164 6.11741C356.012 5.74081 355.941 5.33196 355.958 4.92181C356.012 4.54122 356.012 4.15397 355.958 3.77338C355.899 2.84442 355.547 1.96473 354.96 1.27896C354.374 0.593188 353.588 0.142146 352.731 -7.6592e-06C352.34 -0.0818659 351.938 -0.0818659 351.547 -7.6592e-06C350.69 0.142146 349.903 0.593188 349.317 1.27896C348.73 1.96473 348.379 2.84442 348.319 3.77338C348.265 4.15395 348.265 4.54124 348.319 4.92181C348.367 5.34516 348.323 5.77456 348.19 6.17652C348.058 6.57849 347.84 6.94215 347.556 7.23916C347.272 7.54057 346.93 7.77052 346.553 7.91239C346.177 8.05426 345.775 8.1045 345.379 8.05946C345.156 8.03849 344.933 8.03849 344.71 8.05946C343.68 8.01323 342.674 8.40858 341.915 9.15853C341.156 9.90849 340.705 10.9516 340.662 12.0584C340.619 13.1653 340.987 14.2451 341.685 15.0605C342.384 15.8758 343.355 16.3598 344.386 16.406C344.765 16.4679 345.152 16.4679 345.531 16.406C345.841 16.3365 346.162 16.3507 346.465 16.4474C346.769 16.544 347.045 16.7201 347.269 16.9597L355.481 25.7165C355.716 25.9859 355.88 26.3187 355.954 26.6797C356.028 27.0407 356.009 27.4165 355.901 27.7672C355.794 28.1677 355.736 28.5813 355.729 28.9977C355.7 29.2359 355.7 29.4772 355.729 29.7154C355.771 30.1384 355.724 30.5661 355.591 30.9671C355.459 31.3681 355.245 31.7322 354.965 32.0328C354.681 32.333 354.338 32.5622 353.962 32.704C353.585 32.8458 353.185 32.8967 352.788 32.8531C352.559 32.8309 352.329 32.8309 352.101 32.8531C351.878 32.8287 351.654 32.8287 351.432 32.8531C351.033 32.8969 350.629 32.8462 350.249 32.7045C349.87 32.5628 349.524 32.3335 349.236 32.0328C348.955 31.7339 348.741 31.3693 348.612 30.9675C348.483 30.5656 348.441 30.1372 348.491 29.7154C348.511 29.4767 348.511 29.2365 348.491 28.9977C348.514 28.1573 348.303 27.3288 347.885 26.6181C347.467 25.9074 346.86 25.3468 346.144 25.0081C345.427 24.6694 344.633 24.568 343.863 24.7168C343.092 24.8657 342.381 25.258 341.819 25.8436C341.257 26.4292 340.871 27.1815 340.71 28.0042C340.548 28.8268 340.619 29.6825 340.913 30.4616C341.207 31.2407 341.711 31.9079 342.36 32.3778C343.01 32.8477 343.775 33.0988 344.557 33.0992C344.78 33.1202 345.003 33.1202 345.226 33.0992C345.623 33.0542 346.024 33.1044 346.4 33.2463C346.777 33.3881 347.119 33.6181 347.403 33.9195C347.691 34.2136 347.911 34.5769 348.044 34.9797C348.177 35.3825 348.219 35.8133 348.167 36.2369C348.112 36.6174 348.112 37.0047 348.167 37.3853C348.263 38.3193 348.655 39.1894 349.277 39.8502C349.9 40.5109 350.714 40.9222 351.585 41.0151C351.782 41.0353 351.98 41.0353 352.177 41.0151C352.38 41.0354 352.585 41.0354 352.788 41.0151C353.65 40.8926 354.447 40.4579 355.048 39.783C355.648 39.1081 356.017 38.2334 356.092 37.3032C356.146 36.9227 356.146 36.5354 356.092 36.1548C356.044 35.7315 356.088 35.3021 356.221 34.9001C356.353 34.4981 356.571 34.1345 356.856 33.8375C357.139 33.5361 357.482 33.3061 357.858 33.1642C358.235 33.0224 358.636 32.9721 359.033 33.0172H359.72C360.257 33.0282 360.789 32.9176 361.284 32.6926C361.778 32.4676 362.222 32.1333 362.588 31.7115C362.954 31.2897 363.233 30.7898 363.406 30.2445C363.58 29.6991 363.645 29.1206 363.597 28.5465Z" fill="url(#paint14_linear_380_537374)"/>
</g>
<defs>
<linearGradient id="paint0_linear_380_537374" x1="15.8892" y1="68.8848" x2="15.8892" y2="36.5444" gradientUnits="userSpaceOnUse">
<stop stop-color="#F47920"/>
<stop offset="0.02" stop-color="#F47720"/>
<stop offset="0.37" stop-color="#F26122"/>
<stop offset="0.71" stop-color="#F05324"/>
<stop offset="1" stop-color="#F04E24"/>
</linearGradient>
<linearGradient id="paint1_linear_380_537374" x1="141.451" y1="38749.7" x2="141.451" y2="38126.5" gradientUnits="userSpaceOnUse">
<stop stop-color="#F47920"/>
<stop offset="0.02" stop-color="#F47720"/>
<stop offset="0.37" stop-color="#F26122"/>
<stop offset="0.71" stop-color="#F05324"/>
<stop offset="1" stop-color="#F04E24"/>
</linearGradient>
<linearGradient id="paint2_linear_380_537374" x1="863.447" y1="27985.4" x2="863.447" y2="27661.7" gradientUnits="userSpaceOnUse">
<stop stop-color="#F47920"/>
<stop offset="0.02" stop-color="#F47720"/>
<stop offset="0.37" stop-color="#F26122"/>
<stop offset="0.71" stop-color="#F05324"/>
<stop offset="1" stop-color="#F04E24"/>
</linearGradient>
<linearGradient id="paint3_linear_380_537374" x1="1182.11" y1="27402.8" x2="1182.11" y2="27091.7" gradientUnits="userSpaceOnUse">
<stop stop-color="#F47920"/>
<stop offset="0.02" stop-color="#F47720"/>
<stop offset="0.37" stop-color="#F26122"/>
<stop offset="0.71" stop-color="#F05324"/>
<stop offset="1" stop-color="#F04E24"/>
</linearGradient>
<linearGradient id="paint4_linear_380_537374" x1="351.893" y1="37653.3" x2="351.893" y2="37063.7" gradientUnits="userSpaceOnUse">
<stop stop-color="#F47920"/>
<stop offset="0.02" stop-color="#F47720"/>
<stop offset="0.37" stop-color="#F26122"/>
<stop offset="0.71" stop-color="#F05324"/>
<stop offset="1" stop-color="#F04E24"/>
</linearGradient>
<linearGradient id="paint5_linear_380_537374" x1="2001.55" y1="27899.1" x2="2001.55" y2="27576.4" gradientUnits="userSpaceOnUse">
<stop stop-color="#F47920"/>
<stop offset="0.02" stop-color="#F47720"/>
<stop offset="0.37" stop-color="#F26122"/>
<stop offset="0.71" stop-color="#F05324"/>
<stop offset="1" stop-color="#F04E24"/>
</linearGradient>
<linearGradient id="paint6_linear_380_537374" x1="2154.74" y1="27381" x2="2154.74" y2="27070.2" gradientUnits="userSpaceOnUse">
<stop stop-color="#F47920"/>
<stop offset="0.02" stop-color="#F47720"/>
<stop offset="0.37" stop-color="#F26122"/>
<stop offset="0.71" stop-color="#F05324"/>
<stop offset="1" stop-color="#F04E24"/>
</linearGradient>
<linearGradient id="paint7_linear_380_537374" x1="2961.5" y1="39311.8" x2="2961.5" y2="38676.9" gradientUnits="userSpaceOnUse">
<stop stop-color="#F47920"/>
<stop offset="0.02" stop-color="#F47720"/>
<stop offset="0.37" stop-color="#F26122"/>
<stop offset="0.71" stop-color="#F05324"/>
<stop offset="1" stop-color="#F04E24"/>
</linearGradient>
<linearGradient id="paint8_linear_380_537374" x1="228.795" y1="68.6798" x2="228.795" y2="37.3237" gradientUnits="userSpaceOnUse">
<stop stop-color="#32C3E3"/>
<stop offset="0.08" stop-color="#30BCE1"/>
<stop offset="0.41" stop-color="#2AA6D8"/>
<stop offset="0.73" stop-color="#2698D3"/>
<stop offset="1" stop-color="#2593D1"/>
</linearGradient>
<linearGradient id="paint9_linear_380_537374" x1="3921.17" y1="27940.2" x2="3921.17" y2="27626.2" gradientUnits="userSpaceOnUse">
<stop stop-color="#32C3E3"/>
<stop offset="0.08" stop-color="#30BCE1"/>
<stop offset="0.41" stop-color="#2AA6D8"/>
<stop offset="0.73" stop-color="#2698D3"/>
<stop offset="1" stop-color="#2593D1"/>
</linearGradient>
<linearGradient id="paint10_linear_380_537374" x1="3849.91" y1="27541.4" x2="3849.91" y2="27238.1" gradientUnits="userSpaceOnUse">
<stop stop-color="#32C3E3"/>
<stop offset="0.08" stop-color="#30BCE1"/>
<stop offset="0.41" stop-color="#2AA6D8"/>
<stop offset="0.73" stop-color="#2698D3"/>
<stop offset="1" stop-color="#2593D1"/>
</linearGradient>
<linearGradient id="paint11_linear_380_537374" x1="4376.34" y1="37689.1" x2="4376.34" y2="37115.9" gradientUnits="userSpaceOnUse">
<stop stop-color="#32C3E3"/>
<stop offset="0.08" stop-color="#30BCE1"/>
<stop offset="0.41" stop-color="#2AA6D8"/>
<stop offset="0.73" stop-color="#2698D3"/>
<stop offset="1" stop-color="#2593D1"/>
</linearGradient>
<linearGradient id="paint12_linear_380_537374" x1="363.367" y1="20.3434" x2="369.44" y2="20.3434" gradientUnits="userSpaceOnUse">
<stop stop-color="#31C3E3"/>
<stop offset="1" stop-color="#228BCC"/>
</linearGradient>
<linearGradient id="paint13_linear_380_537374" x1="-2645.99" y1="3503.84" x2="-2621.62" y2="3503.84" gradientUnits="userSpaceOnUse">
<stop stop-color="#31C3E3"/>
<stop offset="1" stop-color="#228BCC"/>
</linearGradient>
<linearGradient id="paint14_linear_380_537374" x1="340.7" y1="20.5076" x2="363.616" y2="20.5076" gradientUnits="userSpaceOnUse">
<stop stop-color="#F58220"/>
<stop offset="1" stop-color="#F04F24"/>
</linearGradient>
<clipPath id="clip0_380_537374">
<rect width="370.47" height="80" fill="white" transform="translate(0.764832)"/>
</clipPath>
</defs>
</svg>
