<svg width="238" height="40" viewBox="0 0 238 40" fill="none" xmlns="http://www.w3.org/2000/svg">
<path d="M25.5969 27.2338C25.4285 27.2246 25.2641 27.1792 25.1149 27.1005C24.9562 27.0174 24.8166 26.9021 24.7048 26.7621L19.1062 19.1948C19.0426 19.088 18.9394 19.0107 18.8191 18.9795H18.6653C18.5421 18.9825 18.4232 19.0257 18.3269 19.1026L14.7996 22.1069C14.6674 22.2388 14.5629 22.3956 14.492 22.5683C14.4194 22.7296 14.381 22.9042 14.3792 23.081V26.6391C14.3819 26.7182 14.3688 26.797 14.3406 26.871C14.3124 26.9449 14.2698 27.0125 14.2152 27.0697C14.1642 27.1228 14.1054 27.1678 14.0408 27.203H12.3285C12.2657 27.174 12.2098 27.1321 12.1644 27.08C12.1098 27.0227 12.0671 26.9552 12.039 26.8812C12.0108 26.8073 11.9977 26.7284 12.0003 26.6493V11.0533C12.0014 10.9008 12.06 10.7543 12.1644 10.6432C12.2065 10.5852 12.2631 10.5392 12.3285 10.5099C12.3995 10.4958 12.4727 10.4958 12.5438 10.5099H13.8153C13.8912 10.5104 13.9662 10.5271 14.0352 10.559C14.1041 10.5908 14.1655 10.637 14.2152 10.6945C14.2687 10.7483 14.3108 10.8123 14.339 10.8828C14.3672 10.9533 14.3809 11.0287 14.3792 11.1046V19.0103C14.3792 19.1846 14.3792 19.2871 14.451 19.3076C14.4879 19.3177 14.5269 19.3177 14.5638 19.3076C14.6519 19.3019 14.7353 19.2657 14.7996 19.2051L24.5817 10.8585C24.7164 10.7376 24.8731 10.6436 25.0432 10.5817C25.2095 10.5138 25.3865 10.4756 25.5661 10.4689H27.986C28.15 10.4689 28.2423 10.4689 28.2423 10.5919C28.2242 10.6933 28.1695 10.7845 28.0885 10.8483L21.0544 16.7852C20.9599 16.8552 20.8943 16.9573 20.8699 17.0723V17.2056C20.8698 17.3419 20.9129 17.4747 20.9929 17.585L27.8732 26.7416C27.9248 26.8181 27.9565 26.9062 27.9655 26.998C27.9655 27.1415 27.8732 27.2133 27.6784 27.2133L25.5969 27.2338Z" fill="url(#paint0_linear_725_361295)"/>
<path d="M31.5748 11.4942C31.3503 11.1996 31.2287 10.8393 31.2287 10.4689C31.2287 10.0984 31.3503 9.73816 31.5748 9.44348C31.6995 9.29111 31.8622 9.17438 32.0465 9.1051C32.2304 9.02493 32.4308 8.98978 32.631 9.00257C32.8225 8.9938 33.0139 9.02164 33.1949 9.0846C33.3757 9.15631 33.5398 9.26451 33.6768 9.40246C33.9206 9.68671 34.0454 10.0539 34.0255 10.4278C34.0356 10.8003 33.9119 11.1641 33.6768 11.4532C33.5504 11.6086 33.3887 11.7316 33.2052 11.8121C32.8312 11.9281 32.4308 11.9281 32.0568 11.8121C31.8743 11.7435 31.7097 11.6349 31.5748 11.4942ZM31.9542 27.2338H31.7799C31.7259 27.2092 31.6772 27.1743 31.6363 27.1313C31.5847 27.0808 31.5443 27.02 31.5178 26.9529C31.4913 26.8857 31.4793 26.8137 31.4825 26.7416V15.1548C31.4724 15.0903 31.4724 15.0246 31.4825 14.96C31.5068 14.8997 31.5415 14.8442 31.5851 14.796C31.6286 14.7561 31.6768 14.7216 31.7286 14.6934C31.7863 14.6833 31.8453 14.6833 31.9029 14.6934H33.2462C33.3073 14.6831 33.3697 14.6831 33.4308 14.6934C33.4892 14.7154 33.5418 14.7505 33.5846 14.796C33.6281 14.8442 33.6628 14.8997 33.6871 14.96C33.6973 15.0246 33.6973 15.0903 33.6871 15.1548V26.7416C33.6871 26.8703 33.6396 26.9944 33.5538 27.0902C33.511 27.1357 33.4584 27.1707 33.4 27.1928H33.2154L31.9542 27.2338Z" fill="url(#paint1_linear_725_361295)"/>
<path d="M40.7109 26.434C39.6421 25.9285 38.7311 25.1416 38.0757 24.1577C37.4423 23.1776 37.1107 22.0331 37.1221 20.8662C37.1013 19.8919 37.2975 18.9253 37.6963 18.0362C38.0549 17.2182 38.5991 16.495 39.2856 15.9239C39.9729 15.3371 40.7666 14.888 41.6235 14.6011C42.5173 14.2913 43.4563 14.1319 44.4023 14.1295C45.5709 14.1149 46.7254 14.3859 47.7655 14.919C48.7412 15.4079 49.5693 16.1475 50.1649 17.062C50.5771 17.7505 50.8489 18.5137 50.9647 19.3076L51.0365 19.7998C51.0859 20.1393 51.1099 20.4821 51.1083 20.8252V21.1533C51.0973 21.2754 51.0469 21.3906 50.9647 21.4814C50.9299 21.5266 50.884 21.5619 50.8314 21.584C50.7737 21.5941 50.7147 21.5941 50.6571 21.584H39.7676C39.583 21.584 39.4805 21.666 39.4805 21.8198C39.4702 21.8878 39.4702 21.9569 39.4805 22.0249L39.6958 22.4043C39.8595 22.7121 40.0517 23.0039 40.27 23.2758C40.5155 23.5914 40.8138 23.8621 41.1518 24.0756C42.3161 24.7225 43.6353 25.0382 44.9662 24.9882C45.923 25.0152 46.8753 24.8478 47.7655 24.496L48.7909 23.9731L49.2113 23.7578C49.2651 23.7267 49.3242 23.7058 49.3856 23.6962H49.5702C49.6279 23.7146 49.6806 23.7462 49.724 23.7885C49.7703 23.8265 49.8056 23.876 49.8265 23.9321L50.5648 25.4086L50.2264 25.624L49.8675 25.8495C48.2802 26.7956 46.4654 27.2918 44.6176 27.2851C43.2665 27.3129 41.928 27.0213 40.7109 26.434ZM48.7601 19.523C48.7777 19.5217 48.7948 19.5169 48.8104 19.509C48.8261 19.5011 48.8401 19.4901 48.8515 19.4768C48.863 19.4634 48.8716 19.448 48.8771 19.4312C48.8825 19.4145 48.8846 19.3969 48.8832 19.3794C48.8609 19.1491 48.8128 18.9221 48.7396 18.7026V18.5488C48.605 18.2398 48.4097 17.9609 48.1654 17.7285C47.1482 16.8348 45.8271 16.3651 44.4741 16.4161C41.9414 16.4161 40.3725 17.2364 39.6958 18.8667L39.583 19.1231V19.2564C39.5841 19.3245 39.6016 19.3914 39.6343 19.4512C39.6343 19.523 39.7471 19.5537 39.8701 19.5537H48.5243C48.5992 19.5637 48.675 19.5637 48.7499 19.5537L48.7601 19.523Z" fill="url(#paint2_linear_725_361295)"/>
<path d="M64.4895 27.1723H64.2946C64.2376 27.1432 64.1857 27.1051 64.1408 27.0595C64.0611 26.9608 64.0177 26.8378 64.0178 26.7109V19.4204C63.9263 18.9942 63.7521 18.5901 63.5051 18.231C63.1677 17.7098 62.6968 17.2884 62.1413 17.0108C61.5604 16.7042 60.9115 16.549 60.2547 16.5596C59.6536 16.5535 59.0585 16.6795 58.5115 16.9288C57.9968 17.1658 57.5281 17.4921 57.1272 17.8926C56.7625 18.2572 56.461 18.68 56.2352 19.1436C56.1445 19.3217 56.0789 19.5115 56.0403 19.7075L55.9788 19.9434C55.9294 20.2829 55.9054 20.6257 55.907 20.9688V26.6596C55.9089 26.7868 55.8653 26.9104 55.784 27.0082C55.7429 27.0552 55.6925 27.0931 55.6361 27.1195C55.5796 27.146 55.5182 27.1605 55.4559 27.162H53.9588C53.9045 27.1335 53.8558 27.0953 53.8153 27.0493C53.7696 27.0034 53.7334 26.9491 53.7088 26.8892C53.6842 26.8294 53.6716 26.7653 53.6717 26.7006V15.0728C53.6724 14.9363 53.7235 14.8048 53.8153 14.7037C53.8561 14.6606 53.9048 14.6258 53.9588 14.6012C54.0165 14.591 54.0755 14.591 54.1331 14.6012H55.4661C55.5272 14.5908 55.5896 14.5908 55.6507 14.6012C55.705 14.6297 55.7537 14.6679 55.7943 14.714C55.8831 14.8161 55.9307 14.9477 55.9276 15.0831V16.3853C55.9276 16.5596 55.9276 16.6519 56.0506 16.6519C56.1283 16.6411 56.2004 16.6051 56.2557 16.5494L56.5428 16.293C56.742 16.0817 56.9544 15.883 57.1785 15.6983C57.429 15.4699 57.6963 15.2609 57.9783 15.0728C58.8317 14.5494 59.8177 14.2824 60.8186 14.3038C61.8919 14.2539 62.9577 14.5061 63.8947 15.0318C64.4482 15.3457 64.9329 15.7676 65.32 16.2725C65.6921 16.7687 65.9543 17.3385 66.0891 17.9439C66.1702 18.2369 66.2318 18.5349 66.2736 18.836V19.2564C66.2736 19.6973 66.3351 20.0254 66.3351 20.2818V26.7314C66.3353 26.7961 66.3227 26.8602 66.2981 26.92C66.2734 26.9798 66.2373 27.0342 66.1916 27.08C66.1557 27.1284 66.1055 27.1643 66.048 27.1826H64.4895V27.1723Z" fill="url(#paint3_linear_725_361295)"/>
<path d="M70.5802 27.2954H70.4469C70.3929 27.2707 70.3442 27.2359 70.3033 27.1928C70.2192 27.092 70.1721 26.9653 70.17 26.8339V10.028C70.1774 9.90698 70.2242 9.79171 70.3033 9.69988L70.4469 9.58709C70.5046 9.57693 70.5635 9.57693 70.6212 9.58709H71.9747C72.0371 9.58865 72.0984 9.60312 72.1549 9.6296C72.2114 9.65607 72.2617 9.69397 72.3028 9.74089C72.3841 9.83871 72.4278 9.96236 72.4259 10.0895V26.7827C72.4278 26.9098 72.3841 27.0335 72.3028 27.1313C72.2617 27.1782 72.2114 27.2161 72.1549 27.2426C72.0984 27.2691 72.0371 27.2836 71.9747 27.2851L70.5802 27.2954Z" fill="url(#paint4_linear_725_361295)"/>
<path d="M79.3472 26.434C78.5595 26.014 77.8626 25.4425 77.2964 24.7524C76.7416 24.0629 76.3333 23.2674 76.0967 22.4145C75.6747 20.9963 75.7674 19.4746 76.3584 18.1182C76.9494 16.7617 78.0007 15.6576 79.3267 15.001C80.5112 14.4541 81.8004 14.1708 83.1052 14.1708C84.41 14.1708 85.6991 14.4541 86.8837 15.001C87.9283 15.5297 88.8079 16.3347 89.4267 17.3287C89.9057 18.0768 90.217 18.9199 90.3392 19.7998C90.4659 20.6794 90.4083 21.5758 90.17 22.4319C89.9317 23.288 89.5179 24.0852 88.955 24.7729C88.3907 25.4596 87.6931 26.0247 86.9042 26.434C85.7239 26.9962 84.433 27.2879 83.1257 27.2879C81.8184 27.2879 80.5275 26.9962 79.3472 26.434ZM85.725 24.4755C86.4478 24.1488 87.0707 23.6357 87.5297 22.9887C87.969 22.3615 88.1987 21.6114 88.1859 20.8457V20.5894C88.1986 19.83 87.9687 19.0865 87.5297 18.4668C87.0707 17.8199 86.4478 17.3067 85.725 16.98C84.9111 16.6206 84.0309 16.4355 83.1411 16.4366C82.2481 16.4368 81.3648 16.6218 80.5469 16.98C79.8211 17.3065 79.1949 17.8195 78.732 18.4668C78.3028 19.0913 78.0739 19.8316 78.0757 20.5894V20.8457C78.0677 21.6107 78.297 22.3594 78.732 22.9887C79.1949 23.6361 79.8211 24.1491 80.5469 24.4755C81.3626 24.842 82.2469 25.0307 83.1411 25.0292C84.0321 25.0318 84.9133 24.8429 85.725 24.4755Z" fill="url(#paint5_linear_725_361295)"/>
<path d="M104.284 27.1723H104.1L103.956 27.0595C103.874 26.9618 103.827 26.8389 103.823 26.7109V19.4204C103.745 18.9937 103.577 18.5883 103.331 18.231C102.993 17.7098 102.522 17.2884 101.967 17.0108C101.386 16.7042 100.737 16.549 100.08 16.5596C99.4758 16.552 98.877 16.678 98.3269 16.9288C97.3436 17.4033 96.5514 18.1991 96.0813 19.1846C95.9874 19.3623 95.9184 19.552 95.8763 19.7486V19.9844C95.8218 20.3234 95.7978 20.6665 95.8045 21.0098V26.7006C95.8045 26.8293 95.757 26.9534 95.6712 27.0493C95.6381 27.1026 95.5873 27.1425 95.5276 27.162H93.7537L93.6102 27.0493C93.5244 26.9534 93.4769 26.8293 93.4769 26.7006V15.0728C93.4738 14.9375 93.5213 14.8058 93.6102 14.7037C93.651 14.6606 93.6997 14.6258 93.7537 14.6012C93.8114 14.591 93.8704 14.591 93.9281 14.6012H95.2816C95.3392 14.591 95.3982 14.591 95.4559 14.6012C95.5133 14.6194 95.5635 14.6553 95.5994 14.7037C95.6883 14.8058 95.7358 14.9375 95.7327 15.0728V16.3853C95.7327 16.5596 95.7327 16.6519 95.8558 16.6519C95.9335 16.6411 96.0055 16.6051 96.0608 16.5494L96.3274 16.293C96.5018 16.1187 96.7068 15.9137 96.9632 15.6983C97.2182 15.4755 97.4852 15.2667 97.763 15.0728C98.6205 14.5502 99.6095 14.2833 100.614 14.3038C101.687 14.2539 102.753 14.5061 103.69 15.0318C104.228 15.3463 104.697 15.7664 105.069 16.2668C105.441 16.7673 105.707 17.3377 105.853 17.9439C105.935 18.2823 105.997 18.5899 106.038 18.836V26.7109C106.038 26.8395 105.99 26.9637 105.904 27.0595C105.864 27.1026 105.815 27.1374 105.761 27.162H104.284V27.1723Z" fill="url(#paint6_linear_725_361295)"/>
<path d="M112.918 31.7762L111.954 31.2943C111.873 31.2406 111.807 31.1673 111.763 31.0812C111.718 30.9951 111.696 30.8991 111.698 30.8021V30.597L112.17 29.5101C112.191 29.421 112.241 29.3416 112.313 29.2845C112.388 29.2317 112.478 29.2031 112.569 29.2025H112.754L113.205 29.4076C113.492 29.5511 113.851 29.7152 114.231 29.8792C115.171 30.2281 116.171 30.3917 117.173 30.3612C118.108 30.4434 119.039 30.1767 119.788 29.6126C120.533 29.053 121.038 28.2325 121.203 27.3158C121.295 26.9877 121.357 26.7006 121.408 26.4647V26.1058C121.458 25.8214 121.482 25.5332 121.48 25.2445C121.48 25.142 121.48 25.0907 121.408 25.0907C121.336 25.0907 121.285 25.0907 121.172 25.2445L120.916 25.5009C120.708 25.7072 120.478 25.8895 120.229 26.0443C118.876 26.8927 117.304 27.3274 115.707 27.2953C114.519 27.2945 113.349 26.9985 112.303 26.434C111.321 25.8918 110.511 25.0855 109.965 24.1064C109.401 23.0691 109.115 21.9033 109.134 20.7226C109.102 19.5261 109.412 18.3452 110.027 17.3183C110.621 16.3447 111.473 15.5536 112.487 15.0318C113.619 14.4528 114.877 14.1639 116.148 14.1909C117.611 14.1775 119.051 14.5526 120.321 15.2778L120.978 15.729L121.213 15.9341C121.271 15.9758 121.338 16.0039 121.408 16.0161C121.511 16.0161 121.552 15.9238 121.552 15.7495V14.96C121.542 14.8954 121.542 14.8297 121.552 14.7652C121.57 14.7019 121.605 14.645 121.654 14.6011C121.692 14.5521 121.741 14.5133 121.798 14.4883C121.859 14.478 121.921 14.478 121.982 14.4883H123.326C123.386 14.468 123.45 14.468 123.51 14.4883C123.569 14.5103 123.621 14.5454 123.664 14.5908C123.711 14.6387 123.749 14.6942 123.777 14.7549C123.787 14.8194 123.787 14.8852 123.777 14.9497V26.3109C123.718 27.0767 123.559 27.8316 123.305 28.5565C122.979 29.4105 122.472 30.1837 121.818 30.8226C121.21 31.4078 120.487 31.8616 119.696 32.1556C118.901 32.4466 118.061 32.5925 117.214 32.5862C115.74 32.6379 114.272 32.3612 112.918 31.7762ZM119.306 24.455C120.293 23.9981 121.059 23.1678 121.434 22.1467C121.809 21.1256 121.763 19.9974 121.306 19.0102C121.23 18.8477 121.145 18.6901 121.049 18.5385C120.617 17.8833 120.015 17.3586 119.306 17.021C118.491 16.6302 117.595 16.437 116.691 16.457C115.758 16.4372 114.832 16.63 113.984 17.021C113.239 17.3579 112.596 17.8848 112.118 18.5488C111.675 19.2009 111.445 19.9751 111.462 20.7636C111.452 21.5416 111.689 22.3029 112.139 22.9374C112.619 23.5992 113.262 24.1255 114.005 24.4652C114.855 24.8476 115.78 25.0368 116.712 25.0189C117.609 25.0381 118.498 24.8449 119.306 24.455Z" fill="url(#paint7_linear_725_361295)"/>
<path d="M127.478 27.2748H127.263C127.199 27.2433 127.14 27.2017 127.089 27.1518C126.985 27.0364 126.926 26.8869 126.925 26.7314V11.0533C126.926 10.8979 126.985 10.7483 127.089 10.6329C127.14 10.583 127.199 10.5414 127.263 10.5099H134.769C135.284 10.5203 135.797 10.5614 136.307 10.6329C137.108 10.7357 137.9 10.9003 138.676 11.1251C139.041 11.2286 139.388 11.3914 139.701 11.607C140.183 11.9579 140.572 12.4219 140.833 12.9583C141.094 13.4947 141.22 14.087 141.198 14.6832C141.212 15.2819 141.065 15.8734 140.77 16.395C140.476 16.9167 140.046 17.3491 139.527 17.6465L139.291 17.8003C139.157 17.8926 139.086 17.9849 139.086 18.0669C139.086 18.149 139.157 18.2207 139.301 18.3028L139.875 18.5796C140.568 18.9732 141.125 19.5664 141.475 20.2817C141.804 20.9136 141.963 21.6204 141.936 22.3325C141.994 23.1054 141.841 23.8794 141.495 24.5725C141.148 25.2657 140.62 25.8522 139.968 26.2699C139.152 26.7713 138.234 27.0799 137.281 27.1723C137.076 27.1928 136.87 27.1928 136.666 27.1723H135.312L127.478 27.2748ZM136.297 17.2261L136.768 17.1441C137.36 17.031 137.898 16.7244 138.296 16.2725C138.573 15.9349 138.718 15.509 138.706 15.0728C138.739 14.7401 138.663 14.4058 138.491 14.1192C138.317 13.8292 138.065 13.5945 137.763 13.4425C137.044 13.135 136.269 12.9814 135.487 12.9913H129.857C129.787 12.9705 129.712 12.9705 129.642 12.9913C129.579 13.0241 129.523 13.0695 129.478 13.1246C129.422 13.1788 129.378 13.2444 129.35 13.317C129.322 13.3895 129.309 13.4673 129.314 13.545V16.6929C129.309 16.7707 129.322 16.8484 129.35 16.921C129.378 16.9935 129.422 17.0591 129.478 17.1133C129.523 17.1685 129.579 17.2138 129.642 17.2466C129.712 17.2668 129.787 17.2668 129.857 17.2466H135.22C135.563 17.2466 135.905 17.226 136.245 17.1851L136.297 17.2261ZM136.861 24.6704C137.439 24.6005 138.001 24.4305 138.522 24.1679C138.847 23.9771 139.113 23.7003 139.291 23.3681C139.472 23.0355 139.557 22.6593 139.537 22.2812C139.537 21.1431 138.87 20.3945 137.548 20.0357C137.209 19.9592 136.867 19.901 136.522 19.8613H129.796C129.728 19.8511 129.659 19.8511 129.591 19.8613C129.522 19.8904 129.462 19.9362 129.416 19.9946C129.36 20.0487 129.318 20.1155 129.293 20.1895C129.283 20.2643 129.283 20.3402 129.293 20.415V24.1782C129.283 24.2565 129.283 24.3357 129.293 24.414C129.322 24.4859 129.364 24.5519 129.416 24.6088C129.468 24.6588 129.526 24.7003 129.591 24.7319C129.658 24.7524 129.729 24.7524 129.796 24.7319H135.374C135.861 24.7287 136.347 24.6944 136.83 24.6293L136.861 24.6704Z" fill="url(#paint8_linear_725_361295)"/>
<path d="M157.327 27.2338H157.153C157.099 27.2092 157.05 27.1744 157.009 27.1313C156.963 27.0865 156.927 27.032 156.904 26.9718C156.881 26.9115 156.871 26.847 156.876 26.7827V25.2856C156.876 25.1215 156.876 25.0498 156.743 25.0498C156.67 25.0592 156.601 25.0915 156.548 25.142L156.261 25.4086C156.045 25.6131 155.812 25.7984 155.564 25.9624C154.356 26.7875 152.925 27.224 151.462 27.2133C150.197 27.2452 148.945 26.9559 147.822 26.3725C146.821 25.8478 145.994 25.0425 145.443 24.0551C144.871 23.0206 144.581 21.8536 144.602 20.6714C144.58 19.4715 144.892 18.2891 145.505 17.2569C146.094 16.2749 146.942 15.4734 147.955 14.9395C149.078 14.3569 150.33 14.0677 151.595 14.0987C153.304 14.0439 154.977 14.592 156.322 15.647L156.558 15.8419C156.611 15.9012 156.684 15.9379 156.763 15.9444C156.866 15.9444 156.927 15.8521 156.927 15.6676V14.8678C156.907 14.8044 156.907 14.7363 156.927 14.6729C156.945 14.6097 156.981 14.5528 157.03 14.5089C157.071 14.4658 157.119 14.431 157.173 14.4063H158.804C158.858 14.431 158.906 14.4658 158.947 14.5089C158.991 14.5571 159.026 14.6127 159.05 14.6729C159.07 14.7363 159.07 14.8044 159.05 14.8678V26.7314C159.051 26.7938 159.04 26.8558 159.017 26.9139C158.994 26.972 158.96 27.025 158.917 27.0698C158.881 27.121 158.831 27.1603 158.773 27.1825C158.715 27.1927 158.656 27.1927 158.599 27.1825L157.327 27.2338ZM154.528 24.3833C155.236 24.0364 155.841 23.5095 156.281 22.8555C156.693 22.2013 156.911 21.4442 156.911 20.6714C156.911 19.8986 156.693 19.1415 156.281 18.4873C155.843 17.8338 155.238 17.3097 154.528 16.9698C153.698 16.5799 152.789 16.3869 151.872 16.4058C150.972 16.3907 150.081 16.5838 149.268 16.9698C148.551 17.3106 147.933 17.8295 147.473 18.4771C147.062 19.1312 146.843 19.8883 146.843 20.6611C146.843 21.434 147.062 22.1911 147.473 22.8452C147.936 23.5132 148.57 24.0444 149.309 24.3833C150.123 24.7661 151.014 24.9556 151.913 24.937C152.816 24.9546 153.71 24.7652 154.528 24.3833Z" fill="url(#paint9_linear_725_361295)"/>
<path d="M172.144 27.1723H171.959L171.816 27.0595C171.735 26.9617 171.691 26.838 171.693 26.7109V20.169C171.703 19.9998 171.686 19.8301 171.641 19.6665V19.4204C171.58 19.0261 171.444 18.6469 171.242 18.3028C170.913 17.7856 170.453 17.3647 169.909 17.0826C169.328 16.776 168.679 16.6208 168.022 16.6314C167.417 16.6237 166.819 16.7498 166.268 17.0006C165.266 17.4656 164.455 18.2624 163.972 19.2564C163.878 19.434 163.809 19.6238 163.767 19.8203V20.0562C163.712 20.3951 163.688 20.7383 163.695 21.0816V26.7724C163.697 26.8365 163.686 26.9003 163.663 26.9601C163.64 27.02 163.606 27.0747 163.561 27.121C163.528 27.1744 163.478 27.2143 163.418 27.2338C163.358 27.2541 163.293 27.2541 163.233 27.2338H161.706L161.562 27.121C161.476 27.0252 161.429 26.9011 161.429 26.7724V15.0728C161.426 14.9375 161.473 14.8058 161.562 14.7037C161.603 14.6606 161.652 14.6258 161.706 14.6012C161.763 14.591 161.822 14.591 161.88 14.6012H163.223C163.283 14.5809 163.348 14.5809 163.408 14.6012C163.462 14.6258 163.51 14.6606 163.551 14.7037C163.64 14.8058 163.688 14.9375 163.685 15.0728V16.3853C163.685 16.5596 163.685 16.6519 163.808 16.6519C163.885 16.6411 163.957 16.6051 164.013 16.5494L164.29 16.293C164.464 16.1187 164.679 15.9137 164.925 15.6983C165.18 15.4755 165.447 15.2667 165.725 15.0728C166.583 14.5502 167.572 14.2833 168.576 14.3038C169.649 14.2539 170.715 14.5061 171.652 15.0318C172.19 15.3463 172.659 15.7664 173.031 16.2668C173.403 16.7673 173.67 17.3377 173.815 17.9439C173.897 18.2823 173.959 18.5899 174 18.836L174.051 19.2359V26.7109C174.051 26.8395 174.004 26.9637 173.918 27.0595C173.877 27.1026 173.828 27.1374 173.774 27.162H172.134L172.144 27.1723Z" fill="url(#paint10_linear_725_361295)"/>
<path d="M187.166 27.2133C186.866 27.2004 186.583 27.0717 186.376 26.8544L181.823 21.5019C181.78 21.45 181.723 21.411 181.659 21.3891H181.444C181.333 21.3868 181.224 21.423 181.136 21.4917L178.727 23.4501C178.618 23.5512 178.531 23.6733 178.47 23.809C178.397 23.9446 178.359 24.096 178.358 24.2499V26.7519C178.358 26.8805 178.31 27.0046 178.224 27.1005L178.081 27.2133C178.023 27.2234 177.964 27.2234 177.907 27.2133H176.768C176.707 27.2236 176.645 27.2236 176.584 27.2133C176.531 27.1872 176.485 27.1485 176.45 27.1005C176.405 27.0547 176.369 27.0003 176.344 26.9405C176.319 26.8807 176.307 26.8166 176.307 26.7519V9.94592C176.307 9.88122 176.319 9.81713 176.344 9.75731C176.369 9.69749 176.405 9.64311 176.45 9.59729C176.485 9.54929 176.531 9.51055 176.584 9.4845H178.112L178.255 9.59729C178.341 9.69315 178.388 9.81727 178.388 9.94592V20.7329C178.388 20.9277 178.45 21.0303 178.573 21.0303C178.644 21.0173 178.709 20.9813 178.758 20.9277L186.017 14.919C186.136 14.8169 186.276 14.7432 186.427 14.7037C186.558 14.651 186.697 14.6232 186.838 14.6216H189.093C189.237 14.6216 189.319 14.6216 189.319 14.7139C189.319 14.8062 189.268 14.837 189.186 14.919L183.608 19.4717C183.495 19.564 183.444 19.646 183.444 19.7178V19.8306C183.444 19.9382 183.48 20.0427 183.546 20.1279L189.329 26.8544C189.381 26.9194 189.413 26.9976 189.422 27.08C189.422 27.1723 189.35 27.2133 189.186 27.2133H187.166Z" fill="url(#paint11_linear_725_361295)"/>
<path d="M222.909 21.409C223.38 21.3949 223.836 21.2425 224.22 20.9708C224.604 20.6991 224.9 20.3203 225.071 19.8815C225.241 19.4427 225.278 18.9635 225.178 18.5036C225.078 18.0438 224.844 17.6237 224.506 17.2958C224.168 16.9679 223.742 16.7468 223.279 16.6601C222.816 16.5733 222.338 16.6248 221.905 16.808C221.471 16.9912 221.101 17.2981 220.841 17.6904C220.581 18.0826 220.442 18.5428 220.442 19.0135C220.442 19.3342 220.506 19.6517 220.631 19.9471C220.756 20.2425 220.939 20.5099 221.169 20.7333C221.399 20.9567 221.672 21.1316 221.971 21.2477C222.27 21.3638 222.589 21.4186 222.909 21.409Z" fill="url(#paint12_linear_725_361295)"/>
<path d="M203.889 21.409C204.359 21.3949 204.815 21.2425 205.2 20.9708C205.584 20.6991 205.88 20.3203 206.05 19.8815C206.221 19.4427 206.258 18.9635 206.157 18.5036C206.057 18.0438 205.823 17.6237 205.486 17.2958C205.148 16.9679 204.721 16.7468 204.259 16.6601C203.796 16.5733 203.318 16.6248 202.884 16.808C202.451 16.9912 202.081 17.2981 201.821 17.6904C201.561 18.0826 201.422 18.5428 201.422 19.0135C201.421 19.3342 201.486 19.6517 201.61 19.9471C201.735 20.2425 201.918 20.5099 202.148 20.7333C202.378 20.9567 202.651 21.1316 202.95 21.2477C203.249 21.3638 203.568 21.4186 203.889 21.409Z" fill="url(#paint13_linear_725_361295)"/>
<path fill-rule="evenodd" clip-rule="evenodd" d="M220.586 23.7087C220.546 23.1117 220.291 22.5494 219.868 22.1263C219.445 21.7033 218.883 21.4484 218.286 21.409C218.045 21.3926 217.803 21.4128 217.567 21.4689C217.373 21.5095 217.172 21.5012 216.982 21.4448C216.791 21.3883 216.618 21.2855 216.477 21.1455L211.327 16.0311C211.179 15.8737 211.077 15.6793 211.03 15.4685C210.984 15.2576 210.995 15.0382 211.064 14.8333C211.189 14.4466 211.213 14.0344 211.135 13.6355C211.104 13.3892 211.13 13.139 211.211 12.9043C211.292 12.6696 211.426 12.4567 211.602 12.2821C211.781 12.1074 211.996 11.974 212.232 11.8912C212.468 11.8085 212.719 11.7783 212.968 11.803C213.253 11.8508 213.545 11.8508 213.83 11.803C214.079 11.7783 214.33 11.8085 214.566 11.8912C214.802 11.974 215.017 12.1074 215.196 12.2821C215.372 12.4567 215.506 12.6696 215.587 12.9043C215.668 13.139 215.694 13.3892 215.663 13.6355C215.651 13.775 215.651 13.9153 215.663 14.0547C215.649 14.5456 215.781 15.0295 216.043 15.4446C216.306 15.8597 216.686 16.1871 217.135 16.3849C217.585 16.5827 218.083 16.642 218.566 16.555C219.049 16.4681 219.496 16.239 219.848 15.8969C220.2 15.5549 220.443 15.1155 220.544 14.635C220.645 14.1545 220.6 13.6548 220.416 13.1997C220.231 12.7447 219.915 12.355 219.508 12.0806C219.101 11.8061 218.621 11.6594 218.13 11.6592C217.991 11.647 217.851 11.647 217.711 11.6592C217.462 11.6855 217.211 11.6562 216.974 11.5733C216.738 11.4905 216.524 11.3562 216.346 11.1801C216.164 11.0241 216.019 10.8288 215.924 10.6088C215.828 10.3888 215.784 10.15 215.795 9.91049C215.829 9.6882 215.829 9.46203 215.795 9.23974C215.758 8.69717 215.537 8.18338 215.169 7.78285C214.801 7.38232 214.308 7.11888 213.77 7.03586C213.525 6.98805 213.273 6.98805 213.028 7.03586C212.49 7.11888 211.997 7.38232 211.629 7.78285C211.261 8.18338 211.041 8.69717 211.004 9.23974C210.969 9.46201 210.969 9.68822 211.004 9.91049C211.033 10.1578 211.006 10.4085 210.923 10.6433C210.839 10.8781 210.703 11.0905 210.525 11.264C210.347 11.44 210.132 11.5743 209.896 11.6572C209.66 11.74 209.408 11.7694 209.159 11.7431C209.02 11.7308 208.879 11.7308 208.74 11.7431C208.093 11.7161 207.463 11.947 206.986 12.385C206.51 12.823 206.228 13.4323 206.201 14.0787C206.174 14.7252 206.404 15.3559 206.843 15.8321C207.281 16.3083 207.89 16.591 208.536 16.618C208.774 16.6541 209.017 16.6541 209.255 16.618C209.449 16.5774 209.65 16.5856 209.841 16.6421C210.031 16.6985 210.204 16.8014 210.345 16.9414L215.495 22.0558C215.643 22.2132 215.746 22.4076 215.792 22.6184C215.838 22.8292 215.827 23.0487 215.759 23.2536C215.692 23.4875 215.656 23.729 215.651 23.9722C215.633 24.1114 215.633 24.2523 215.651 24.3914C215.677 24.6385 215.648 24.8883 215.565 25.1225C215.482 25.3567 215.348 25.5694 215.172 25.7449C214.993 25.9203 214.779 26.0541 214.543 26.1369C214.307 26.2197 214.055 26.2495 213.806 26.224C213.663 26.2111 213.519 26.2111 213.375 26.224C213.236 26.2098 213.095 26.2098 212.956 26.224C212.705 26.2496 212.452 26.22 212.214 26.1372C211.976 26.0544 211.759 25.9205 211.579 25.7449C211.402 25.5703 211.268 25.3574 211.187 25.1227C211.106 24.888 211.08 24.6378 211.111 24.3914C211.124 24.252 211.124 24.1117 211.111 23.9722C211.126 23.4814 210.993 22.9975 210.731 22.5824C210.469 22.1673 210.089 21.8399 209.639 21.6421C209.19 21.4442 208.691 21.385 208.208 21.4719C207.725 21.5589 207.279 21.788 206.926 22.1301C206.574 22.4721 206.332 22.9115 206.231 23.392C206.129 23.8724 206.174 24.3722 206.358 24.8272C206.543 25.2823 206.859 25.672 207.266 25.9464C207.673 26.2208 208.153 26.3675 208.644 26.3678C208.783 26.38 208.924 26.38 209.063 26.3678C209.312 26.3415 209.564 26.3708 209.8 26.4537C210.036 26.5365 210.251 26.6708 210.429 26.8469C210.61 27.0186 210.747 27.2308 210.831 27.4661C210.914 27.7013 210.94 27.9529 210.908 28.2003C210.874 28.4226 210.874 28.6488 210.908 28.8711C210.968 29.4166 211.214 29.9248 211.604 30.3107C211.995 30.6966 212.506 30.9368 213.052 30.9911C213.175 31.0029 213.3 31.0029 213.423 30.9911C213.551 31.003 213.679 31.003 213.806 30.9911C214.347 30.9195 214.847 30.6657 215.224 30.2715C215.6 29.8773 215.831 29.3664 215.879 28.8232C215.913 28.6009 215.913 28.3747 215.879 28.1524C215.849 27.9052 215.877 27.6544 215.96 27.4196C216.043 27.1848 216.179 26.9724 216.358 26.7989C216.535 26.6229 216.75 26.4886 216.986 26.4057C217.223 26.3229 217.474 26.2935 217.723 26.3198H218.154C218.491 26.3263 218.825 26.2617 219.135 26.1303C219.445 25.9989 219.724 25.8036 219.953 25.5573C220.182 25.3109 220.357 25.0189 220.466 24.7004C220.575 24.3819 220.616 24.044 220.586 23.7087Z" fill="url(#paint14_linear_725_361295)"/>
<defs>
<linearGradient id="paint0_linear_725_361295" x1="20.1213" y1="27.039" x2="20.1213" y2="10.8688" gradientUnits="userSpaceOnUse">
<stop stop-color="#F47920"/>
<stop offset="0.02" stop-color="#F47720"/>
<stop offset="0.37" stop-color="#F26122"/>
<stop offset="0.71" stop-color="#F05324"/>
<stop offset="1" stop-color="#F04E24"/>
</linearGradient>
<linearGradient id="paint1_linear_725_361295" x1="87.5416" y1="19367.4" x2="87.5416" y2="19055.8" gradientUnits="userSpaceOnUse">
<stop stop-color="#F47920"/>
<stop offset="0.02" stop-color="#F47720"/>
<stop offset="0.37" stop-color="#F26122"/>
<stop offset="0.71" stop-color="#F05324"/>
<stop offset="1" stop-color="#F04E24"/>
</linearGradient>
<linearGradient id="paint2_linear_725_361295" x1="475.216" y1="13985.3" x2="475.216" y2="13823.4" gradientUnits="userSpaceOnUse">
<stop stop-color="#F47920"/>
<stop offset="0.02" stop-color="#F47720"/>
<stop offset="0.37" stop-color="#F26122"/>
<stop offset="0.71" stop-color="#F05324"/>
<stop offset="1" stop-color="#F04E24"/>
</linearGradient>
<linearGradient id="paint3_linear_725_361295" x1="646.32" y1="13694" x2="646.32" y2="13538.5" gradientUnits="userSpaceOnUse">
<stop stop-color="#F47920"/>
<stop offset="0.02" stop-color="#F47720"/>
<stop offset="0.37" stop-color="#F26122"/>
<stop offset="0.71" stop-color="#F05324"/>
<stop offset="1" stop-color="#F04E24"/>
</linearGradient>
<linearGradient id="paint4_linear_725_361295" x1="200.538" y1="18819.3" x2="200.538" y2="18524.5" gradientUnits="userSpaceOnUse">
<stop stop-color="#F47920"/>
<stop offset="0.02" stop-color="#F47720"/>
<stop offset="0.37" stop-color="#F26122"/>
<stop offset="0.71" stop-color="#F05324"/>
<stop offset="1" stop-color="#F04E24"/>
</linearGradient>
<linearGradient id="paint5_linear_725_361295" x1="1086.32" y1="13942.1" x2="1086.32" y2="13780.8" gradientUnits="userSpaceOnUse">
<stop stop-color="#F47920"/>
<stop offset="0.02" stop-color="#F47720"/>
<stop offset="0.37" stop-color="#F26122"/>
<stop offset="0.71" stop-color="#F05324"/>
<stop offset="1" stop-color="#F04E24"/>
</linearGradient>
<linearGradient id="paint6_linear_725_361295" x1="1168.57" y1="13683.1" x2="1168.57" y2="13527.7" gradientUnits="userSpaceOnUse">
<stop stop-color="#F47920"/>
<stop offset="0.02" stop-color="#F47720"/>
<stop offset="0.37" stop-color="#F26122"/>
<stop offset="0.71" stop-color="#F05324"/>
<stop offset="1" stop-color="#F04E24"/>
</linearGradient>
<linearGradient id="paint7_linear_725_361295" x1="1601.76" y1="19648.5" x2="1601.76" y2="19331" gradientUnits="userSpaceOnUse">
<stop stop-color="#F47920"/>
<stop offset="0.02" stop-color="#F47720"/>
<stop offset="0.37" stop-color="#F26122"/>
<stop offset="0.71" stop-color="#F05324"/>
<stop offset="1" stop-color="#F04E24"/>
</linearGradient>
<linearGradient id="paint8_linear_725_361295" x1="134.441" y1="26.9364" x2="134.441" y2="11.2584" gradientUnits="userSpaceOnUse">
<stop stop-color="#32C3E3"/>
<stop offset="0.08" stop-color="#30BCE1"/>
<stop offset="0.41" stop-color="#2AA6D8"/>
<stop offset="0.73" stop-color="#2698D3"/>
<stop offset="1" stop-color="#2593D1"/>
</linearGradient>
<linearGradient id="paint9_linear_725_361295" x1="2117.05" y1="13962.7" x2="2117.05" y2="13805.7" gradientUnits="userSpaceOnUse">
<stop stop-color="#32C3E3"/>
<stop offset="0.08" stop-color="#30BCE1"/>
<stop offset="0.41" stop-color="#2AA6D8"/>
<stop offset="0.73" stop-color="#2698D3"/>
<stop offset="1" stop-color="#2593D1"/>
</linearGradient>
<linearGradient id="paint10_linear_725_361295" x1="2078.79" y1="13763.3" x2="2078.79" y2="13611.6" gradientUnits="userSpaceOnUse">
<stop stop-color="#32C3E3"/>
<stop offset="0.08" stop-color="#30BCE1"/>
<stop offset="0.41" stop-color="#2AA6D8"/>
<stop offset="0.73" stop-color="#2698D3"/>
<stop offset="1" stop-color="#2593D1"/>
</linearGradient>
<linearGradient id="paint11_linear_725_361295" x1="2361.46" y1="18837.2" x2="2361.46" y2="18550.5" gradientUnits="userSpaceOnUse">
<stop stop-color="#32C3E3"/>
<stop offset="0.08" stop-color="#30BCE1"/>
<stop offset="0.41" stop-color="#2AA6D8"/>
<stop offset="0.73" stop-color="#2698D3"/>
<stop offset="1" stop-color="#2593D1"/>
</linearGradient>
<linearGradient id="paint12_linear_725_361295" x1="220.442" y1="18.9176" x2="224.251" y2="18.9176" gradientUnits="userSpaceOnUse">
<stop stop-color="#31C3E3"/>
<stop offset="1" stop-color="#228BCC"/>
</linearGradient>
<linearGradient id="paint13_linear_725_361295" x1="-1667.09" y1="2053.49" x2="-1651.8" y2="2053.49" gradientUnits="userSpaceOnUse">
<stop stop-color="#31C3E3"/>
<stop offset="1" stop-color="#228BCC"/>
</linearGradient>
<linearGradient id="paint14_linear_725_361295" x1="206.225" y1="19.0135" x2="220.598" y2="19.0135" gradientUnits="userSpaceOnUse">
<stop stop-color="#F58220"/>
<stop offset="1" stop-color="#F04F24"/>
</linearGradient>
</defs>
</svg>
