<svg width="18" height="18" viewBox="0 0 18 18" fill="none" xmlns="http://www.w3.org/2000/svg">
<g clip-path="url(#clip0_874_76437)">
<path fill-rule="evenodd" clip-rule="evenodd" d="M5.27883 7.01895V5.51683C5.27883 4.52944 5.67107 3.58248 6.36926 2.88429C7.06746 2.1861 8.01441 1.79385 9.00181 1.79385C9.9892 1.79385 10.9362 2.1861 11.6343 2.88429C12.3325 3.58248 12.7248 4.52944 12.7248 5.51683V7.01895H13.7915C14.1643 7.01895 14.4665 7.32116 14.4665 7.69395V15.5316C14.4665 15.9044 14.1643 16.2066 13.7915 16.2066H4.21211C3.83932 16.2066 3.53711 15.9044 3.53711 15.5316V7.69395C3.53711 7.32116 3.83932 7.01895 4.21211 7.01895H5.27883ZM7.32386 3.83888C7.76888 3.39386 8.37245 3.14385 9.00181 3.14385C9.63116 3.14385 10.2347 3.39386 10.6798 3.83888C11.1248 4.2839 11.3748 4.88748 11.3748 5.51683V7.01895H6.62883V5.51683C6.62883 4.88748 6.87884 4.2839 7.32386 3.83888ZM5.95014 8.36895L5.95383 8.36896L5.95752 8.36895H12.0461L12.0498 8.36896L12.0535 8.36895H13.1165V14.8566H4.88711V8.36895H5.95014Z" fill="#A8071A"/>
</g>
<defs>
<clipPath id="clip0_874_76437">
<rect width="18" height="18" fill="white"/>
</clipPath>
</defs>
</svg>
