<svg width="14" height="14" viewBox="0 0 14 14" fill="none" xmlns="http://www.w3.org/2000/svg">
<g clip-path="url(#clip0_1003_62422)">
<g clip-path="url(#clip1_1003_62422)">
<path d="M13.2125 12.3539L9.15469 8.29613C9.78438 7.48207 10.125 6.48676 10.125 5.43988C10.125 4.18676 9.63594 3.01176 8.75156 2.12582C7.86719 1.23988 6.68906 0.75238 5.4375 0.75238C4.18594 0.75238 3.00781 1.24144 2.12344 2.12582C1.2375 3.01019 0.75 4.18676 0.75 5.43988C0.75 6.69144 1.23906 7.86957 2.12344 8.75394C3.00781 9.63988 4.18438 10.1274 5.4375 10.1274C6.48438 10.1274 7.47813 9.78676 8.29219 9.15863L12.35 13.2149C12.3619 13.2268 12.376 13.2362 12.3916 13.2427C12.4071 13.2491 12.4238 13.2524 12.4406 13.2524C12.4575 13.2524 12.4741 13.2491 12.4897 13.2427C12.5052 13.2362 12.5194 13.2268 12.5312 13.2149L13.2125 12.5352C13.2244 12.5233 13.2338 12.5092 13.2403 12.4936C13.2467 12.4781 13.2501 12.4614 13.2501 12.4446C13.2501 12.4277 13.2467 12.4111 13.2403 12.3955C13.2338 12.38 13.2244 12.3658 13.2125 12.3539ZM7.9125 7.91488C7.25 8.57582 6.37187 8.93988 5.4375 8.93988C4.50312 8.93988 3.625 8.57582 2.9625 7.91488C2.30156 7.25238 1.9375 6.37426 1.9375 5.43988C1.9375 4.50551 2.30156 3.62582 2.9625 2.96488C3.625 2.30394 4.50312 1.93988 5.4375 1.93988C6.37187 1.93988 7.25156 2.30238 7.9125 2.96488C8.57344 3.62738 8.9375 4.50551 8.9375 5.43988C8.9375 6.37426 8.57344 7.25394 7.9125 7.91488Z" fill="black" fill-opacity="0.25"/>
</g>
</g>
<defs>
<clipPath id="clip0_1003_62422">
<rect width="14" height="14" fill="white" transform="translate(0 0.000366211)"/>
</clipPath>
<clipPath id="clip1_1003_62422">
<rect width="14" height="14" fill="white" transform="translate(0 0.000366211)"/>
</clipPath>
</defs>
</svg>
